<svg width="200" height="200" viewBox="0 0 200 200" fill="none" xmlns="http://www.w3.org/2000/svg">
<mask id="mask0_39_61" style="mask-type:luminance" maskUnits="userSpaceOnUse" x="0" y="0" width="200" height="200">
<path d="M0 0H200V200H0V0Z" fill="white"/>
</mask>
<g mask="url(#mask0_39_61)">
<path d="M100.021 199.995C100.021 199.995 100.01 199.995 100.005 199.995L96.9688 199.948H96.9635L94.0365 199.88C94.026 199.88 94.0104 199.88 94 199.88L91.276 199.771C91.2552 199.771 91.25 199.771 91.2292 199.771L88.776 199.625C88.7604 199.625 88.75 199.625 88.7344 199.625L86.6302 199.443C86.6094 199.443 86.5938 199.443 86.5781 199.432L84.8958 199.219C84.875 199.219 84.8698 199.219 84.849 199.214L83.6042 198.974L80.9948 198.266L67.6042 194.938C67.5938 194.938 67.5938 194.938 67.5833 194.927C67.5729 194.927 67.5677 194.917 67.5573 194.917L66.1719 194.443C66.1563 194.438 66.1354 194.427 66.1198 194.417L53.1667 188.391L51.5521 187.766L50.4583 187.266C50.4219 187.25 50.3906 187.229 50.3542 187.203L36.1458 177.37C36.1094 177.344 36.0833 177.328 36.0521 177.292L23.7344 165.083C23.7083 165.057 23.6823 165.031 23.6667 164.995L13.6302 150.708C13.6146 150.682 13.5937 150.651 13.5781 150.625L6.16146 134.76C6.14583 134.724 6.13021 134.688 6.11979 134.646L6.09375 134.531L1.57813 117.703C1.57292 117.677 1.5625 117.641 1.5625 117.615L1.53646 117.443C1.52604 117.406 1.52083 117.38 1.52083 117.344L0.0104167 100.208V100.203L0 100.141C0 100.099 6.66827e-07 100.052 0.0104167 100.01V99.9011L1.51042 82.7188L1.55208 82.4167C1.5625 82.3855 1.5625 82.349 1.57813 82.3125L1.60417 82.2188L6.10938 65.3959C6.11979 65.3646 6.13542 65.3178 6.14583 65.2865L13.5417 49.4219C13.5521 49.3959 13.5677 49.3698 13.5885 49.3438C13.5885 49.3334 13.5938 49.3334 13.5938 49.323L23.6198 35.0365C23.6406 35.0105 23.6667 34.9792 23.6927 34.9532L36.0052 22.7084C36.0313 22.6823 36.0677 22.6563 36.1042 22.6302L50.3021 12.7865C50.3281 12.7605 50.3646 12.7396 50.3958 12.724L51.474 12.2344L53.099 11.6094L66.0573 5.57296C66.0781 5.56254 66.0938 5.55733 66.1094 5.54692L67.4948 5.07296C67.5208 5.06254 67.5469 5.05733 67.5729 5.05733H67.5833L83.5104 1.02608L84.7865 0.781291C84.7969 0.781291 84.8125 0.781291 84.8229 0.770874L86.526 0.557332C86.5313 0.557332 86.5417 0.557332 86.5521 0.557332L88.6823 0.375041C88.6875 0.375041 88.6875 0.375041 88.6979 0.375041L91.1771 0.223999C91.1875 0.223999 91.1875 0.223999 91.1927 0.223999L93.9479 0.114624H93.9583L96.901 0.0417074H96.9167L99.9427 0.00524902H99.9531L103 0.0417074C103.01 0.0417074 103.01 0.0417074 103.021 0.0417074L105.953 0.114624H105.964L108.724 0.223999C108.734 0.223999 108.734 0.223999 108.74 0.223999L111.214 0.375041C111.224 0.375041 111.224 0.375041 111.229 0.375041L113.344 0.557332C113.359 0.557332 113.38 0.557333 113.396 0.567749L115.078 0.781291C115.089 0.781291 115.094 0.781291 115.115 0.786499L116.359 1.02608L119.005 1.74483L132.37 5.06254L133.745 5.5365L149.469 12.7084C149.479 12.7084 149.49 12.7136 149.49 12.7136C149.516 12.724 149.542 12.7396 149.557 12.7605L163.781 22.6042C163.807 22.6198 163.833 22.6459 163.859 22.6615L176.182 34.8959C176.208 34.9271 176.234 34.9532 176.255 34.9844L186.286 49.2657C186.286 49.2709 186.297 49.2709 186.297 49.2813C186.313 49.3073 186.323 49.3334 186.344 49.3594L193.755 65.2136C193.771 65.25 193.781 65.2865 193.802 65.3282L198.349 82.2761C198.359 82.2969 198.359 82.323 198.365 82.3386C198.365 82.349 198.365 82.3594 198.365 82.3646L198.391 82.5938C198.391 82.6094 198.401 82.6355 198.401 82.6563L199.906 99.9584C199.906 99.9896 199.906 100.016 199.906 100.042L198.411 117.266C198.411 117.281 198.411 117.292 198.401 117.307C198.401 117.318 198.401 117.328 198.401 117.328L198.375 117.531C198.375 117.537 198.375 117.557 198.365 117.563C198.365 117.583 198.359 117.609 198.359 117.625L193.818 134.573C193.807 134.609 193.792 134.656 193.771 134.688L186.37 150.563C186.349 150.599 186.333 150.625 186.313 150.656L176.286 164.943C176.271 164.969 176.245 165.005 176.219 165.021L163.906 177.266C163.88 177.292 163.844 177.318 163.807 177.344L149.599 187.188C149.573 187.203 149.542 187.224 149.516 187.24L133.844 194.401L132.417 194.891C132.406 194.891 132.385 194.901 132.38 194.901L128.094 195.99L118.995 198.24L116.411 198.943L115.13 199.188C115.12 199.188 115.115 199.188 115.104 199.188C115.094 199.188 115.089 199.188 115.089 199.188L113.396 199.396C113.38 199.396 113.359 199.396 113.344 199.406L111.25 199.589C111.229 199.589 111.224 199.589 111.203 199.589L108.76 199.74C108.74 199.74 108.734 199.74 108.714 199.74L105.99 199.854C105.979 199.854 105.964 199.854 105.953 199.854L103.026 199.922H103.021L99.9844 199.969C100.036 199.995 100.031 199.995 100.021 199.995ZM97.224 198.833L99.4792 198.854V196.828L95.2604 196.802L97.224 198.833ZM100.583 196.828V198.854L102.833 198.833L104.797 196.792L100.583 196.828ZM94.1823 198.776L95.6458 198.807L93.7031 196.787L90.3542 196.714L94.1823 198.776ZM106.359 196.776L104.411 198.802L105.875 198.766L109.703 196.698L106.359 196.776ZM91.3958 198.662L91.6667 198.667L87.9271 196.651L85.9375 196.573L91.3958 198.662ZM112.141 196.646L108.391 198.667L108.656 198.662L114.125 196.573L112.141 196.646ZM82.1667 196.427L83.4844 196.839L82.4583 196.443L82.1667 196.427ZM117.604 196.427L116.594 196.813L117.891 196.406L117.604 196.427ZM94.3073 195.682L99.4792 195.714V190.537L91.8854 190.484L94.3073 195.682ZM100.589 190.537V195.714L105.76 195.672L108.182 190.484L100.589 190.537ZM88.3229 195.547L93.0729 195.656L90.6615 190.474L83.5885 190.323L88.3229 195.547ZM109.406 190.464L107 195.646L111.75 195.542L116.479 190.318L109.406 190.464ZM82.7708 195.339L86.7604 195.495L82.0469 190.297L75.9115 190.078L82.7708 195.339ZM118.016 190.281L113.297 195.49L117.286 195.328L124.151 190.052L118.016 190.281ZM77.8281 195.057L80.8073 195.234L74 190L69.1354 189.74L77.8281 195.057ZM126.063 189.984L119.25 195.214L122.219 195.042L130.917 189.714L126.063 189.984ZM73.6302 194.708L75.375 194.854L66.8021 189.609L63.4896 189.344L73.6302 194.708ZM133.266 189.578L124.693 194.839L126.438 194.688L136.578 189.318L133.266 189.578ZM70.2917 194.302L70.5573 194.339L60.6875 189.115L59.2031 188.948L70.2917 194.302ZM139.375 189.089L129.505 194.313L129.766 194.276L140.854 188.917L139.375 189.089ZM91.4323 189.38L99.4792 189.432V181.182L89.0313 181.125L91.4323 189.38ZM100.589 181.182V189.432L108.635 189.37L111.036 181.115L100.589 181.182ZM82.6302 189.203L90.2656 189.359L87.8646 181.115L77.9271 180.932L82.6302 189.203ZM112.193 181.104L109.792 189.354L117.427 189.188L122.135 180.912L112.193 181.104ZM74.474 188.917L81.3333 189.162L76.6354 180.906L67.6615 180.615L74.474 188.917ZM123.432 180.885L118.734 189.151L125.589 188.896L132.396 180.589L123.432 180.885ZM67.2083 188.521L72.9635 188.833L66.1719 180.563L58.5573 180.188L67.2083 188.521ZM133.88 180.537L127.083 188.818L132.844 188.5L141.484 180.156L133.88 180.537ZM61.0729 188.037L65.4792 188.391L56.8854 180.099L50.9479 179.677L61.0729 188.037ZM143.188 180.063L134.589 188.365L138.99 188.01L149.12 179.641L143.188 180.063ZM56.224 187.484L59.0469 187.813L49.0208 179.526L45.026 179.115L56.224 187.484ZM151.031 179.495L141.005 187.781L143.823 187.458L155.016 179.083L151.031 179.495ZM52.8177 186.891L53.8073 187.068L42.8594 178.88L41.0729 178.589L52.8177 186.891ZM157.193 178.844L146.245 187.031L147.224 186.854L158.964 178.547L157.193 178.844ZM88.75 180.01L99.4792 180.073V168.974L86.5573 168.917L88.75 180.01ZM100.589 168.974V180.073L111.328 180L113.516 168.896L100.589 168.974ZM77.349 179.807L87.6094 180L85.4219 168.906L73.0625 168.714L77.349 179.807ZM114.641 168.885L112.448 179.984L122.714 179.792L127 168.688L114.641 168.885ZM66.7865 179.469L76.1458 179.771L71.8594 168.688L60.5833 168.38L66.7865 179.469ZM128.198 168.667L123.922 179.755L133.281 179.448L139.479 168.354L128.198 168.667ZM57.4063 179.01L65.4792 179.406L59.2917 168.328L49.5573 167.922L57.4063 179.01ZM140.766 168.307L134.578 179.385L142.641 178.984L150.495 167.896L140.766 168.307ZM49.5208 178.458L55.9792 178.917L48.1458 167.865L40.3177 167.391L49.5208 178.458ZM151.917 167.828L144.078 178.885L150.536 178.422L159.734 167.344L151.917 167.828ZM43.349 177.828L47.9531 178.302L38.8021 167.292L33.1823 166.792L43.349 177.828ZM161.255 167.25L152.109 178.266L156.698 177.781L166.875 166.74L161.255 167.25ZM39.0573 177.146L41.5781 177.557L31.5104 166.646L28.3125 166.198L39.0573 177.146ZM168.531 166.594L158.469 177.51L160.984 177.099L171.724 166.135L168.531 166.594ZM36.75 176.443L36.849 176.469L26.4792 165.906L26.0156 165.776L36.75 176.443ZM173.552 165.854L163.193 176.427L163.281 176.401L174.01 165.734L173.552 165.854ZM86.3646 167.802L99.4792 167.865V154.26L84.526 154.208L86.3646 167.802ZM100.589 154.26V167.865L113.703 167.792L115.542 154.198L100.589 154.26ZM72.6771 167.589L85.2448 167.781L83.3958 154.188L69.0677 154.016L72.6771 167.589ZM116.667 154.182L114.823 167.776L127.391 167.573L130.995 154.005L116.667 154.182ZM60.0104 167.25L71.526 167.563L67.9271 154.005L54.8073 153.724L60.0104 167.25ZM132.141 153.979L128.542 167.537L140.047 167.214L145.255 153.682L132.141 153.979ZM48.7917 166.787L58.7917 167.203L53.5938 153.693L42.2031 153.313L48.7917 166.787ZM146.464 153.667L141.266 167.177L151.266 166.76L157.859 153.287L146.464 153.667ZM39.4063 166.224L47.5208 166.714L40.9427 153.276L31.6927 152.839L39.4063 166.224ZM159.099 153.234L152.526 166.677L160.646 166.177L168.339 152.787L159.099 153.234ZM32.1042 165.583L38.0573 166.109L30.3802 152.76L23.5938 152.287L32.1042 165.583ZM169.661 152.719L161.984 166.068L167.927 165.531L176.438 152.234L169.661 152.719ZM27.0938 164.891L30.6667 165.391L22.2135 152.172L18.099 151.719L27.0938 164.891ZM177.833 152.13L169.375 165.349L172.943 164.849L181.922 151.677L177.833 152.13ZM24.4635 164.198L25.4635 164.479L16.6302 151.542L15.3646 151.26L24.4635 164.198ZM183.406 151.474L174.578 164.417L175.568 164.146L184.656 151.193L183.406 151.474ZM84.3958 153.094L99.4792 153.146V137.531L83 137.484L84.3958 153.094ZM100.583 137.531V153.146L115.667 153.078L117.057 137.474L100.583 137.531ZM68.8125 152.912L83.2813 153.083L81.8854 137.484L66.0938 137.354L68.8125 152.912ZM118.172 137.474L116.776 153.078L131.24 152.891L133.958 137.339L118.172 137.474ZM54.4115 152.604L67.6823 152.885L64.9531 137.344L50.474 137.135L54.4115 152.604ZM135.094 137.318L132.38 152.865L145.641 152.568L149.568 137.089L135.094 137.318ZM41.7031 152.193L53.2552 152.568L49.3177 137.109L36.724 136.828L41.7031 152.193ZM150.714 137.073L146.786 152.531L158.339 152.146L163.302 136.787L150.714 137.073ZM31.1094 151.693L40.526 152.141L35.5677 136.792L25.3125 136.458L31.1094 151.693ZM164.484 136.755L159.521 152.104L168.938 151.646L174.729 136.417L164.484 136.755ZM22.9115 151.13L29.8906 151.62L24.1042 136.427L16.5208 136.057L22.9115 151.13ZM175.938 136.365L170.161 151.568L177.13 151.078L183.521 135.995L175.938 136.365ZM17.3385 150.526L21.6615 151.01L15.276 135.984L10.5833 135.625L17.3385 150.526ZM184.745 135.927L178.385 150.948L182.693 150.464L189.443 135.557L184.745 135.927ZM14.474 149.912L15.9948 150.255L9.30208 135.495L7.59896 135.224L14.474 149.912ZM190.714 135.432L184.036 150.193L185.552 149.854L192.406 135.162L190.714 135.432ZM82.9115 136.38L99.4688 136.427V119.385L82.0469 119.37L82.9115 136.38ZM100.583 119.385V136.427L117.135 136.37L117.995 119.359L100.583 119.385ZM65.9271 136.24L81.8073 136.37L80.9323 119.359L64.2292 119.292L65.9271 136.24ZM119.109 119.354L118.25 136.365L134.13 136.224L135.823 119.271L119.109 119.354ZM50.25 136.021L64.8125 136.234L63.1146 119.292L47.7917 119.177L50.25 136.021ZM136.927 119.266L135.234 136.203L149.792 135.984L152.229 119.151L136.927 119.266ZM36.4271 135.714L49.1198 135.995L46.6719 119.167L33.3438 119.021L36.4271 135.714ZM153.359 119.13L150.922 135.958L163.604 135.672L166.682 118.984L153.359 119.13ZM24.9375 135.349L35.2969 135.688L32.2135 119.021L21.3438 118.844L24.9375 135.349ZM167.823 118.964L164.745 135.635L175.099 135.292L178.688 118.781L167.823 118.964ZM16.1042 134.927L23.7969 135.292L20.2031 118.807L12.1406 118.615L16.1042 134.927ZM179.828 118.755L176.245 135.24L183.932 134.865L187.885 118.552L179.828 118.755ZM10.125 134.479L14.9375 134.849L10.9844 118.578L5.94271 118.385L10.125 134.479ZM189.031 118.521L185.089 134.787L189.891 134.406L194.063 118.318L189.031 118.521ZM7.09896 134.021L8.93229 134.313L4.77083 118.318L2.84375 118.162L7.09896 134.021ZM195.24 118.24L191.083 134.25L192.906 133.964L197.172 118L195.24 118.24ZM82 118.255L99.4583 118.276L99.4531 100.51L81.6927 100.516L82 118.255ZM100.573 100.51L100.583 118.276L118.042 118.245L118.328 100.51H100.573ZM64.151 118.188L80.8958 118.255L80.599 100.516L63.5677 100.526L64.151 118.188ZM119.432 100.51L119.146 118.245L135.885 118.167L136.453 100.51H119.432ZM47.6823 118.073L63.0365 118.188L62.4583 100.526L46.849 100.537L47.6823 118.073ZM137.568 100.5L137 118.162L152.354 118.037L153.177 100.5H137.568ZM33.1927 117.917L46.5677 118.063L45.7344 100.537L32.1406 100.542L33.1927 117.917ZM154.292 100.5L153.464 118.026L166.833 117.87L167.875 100.5H154.292ZM21.1667 117.724L32.0885 117.896L31.0365 100.542L19.9479 100.552L21.1667 117.724ZM168.99 100.5L167.943 117.854L178.854 117.667L180.068 100.5H168.99ZM11.9375 117.5L20.0573 117.693L18.8385 100.552L10.599 100.563L11.9375 117.5ZM181.188 100.5L179.979 117.641L188.083 117.443L189.417 100.5H181.188ZM5.72396 117.266L10.8177 117.469L9.47396 100.563L4.30729 100.568L5.72396 117.266ZM190.531 100.5L189.198 117.396L194.281 117.198L195.693 100.5H190.531ZM2.60417 117.031L4.60417 117.198L3.19271 100.568L1.16146 100.578L2.60417 117.031ZM196.807 100.5L195.401 117.099L197.401 116.854L198.823 100.51L196.807 100.5ZM2.60417 83.0053L1.16146 99.4636L3.19271 99.4584L4.59375 82.8282L2.60417 83.0053ZM5.71875 82.7605L4.30729 99.4584L9.47396 99.448L10.8073 82.5521L5.71875 82.7605ZM11.9219 82.5157L10.5885 99.4584L18.8281 99.448L20.0365 82.3073L11.9219 82.5157ZM21.151 82.2761L19.9427 99.4375L31.026 99.4323L32.0625 82.0782L21.151 82.2761ZM33.1823 82.0678L32.1406 99.4375L45.7344 99.4323L46.5573 81.9011L33.1823 82.0678ZM47.6719 81.8855L46.849 99.4219L62.4583 99.4115L63.026 81.7605L47.6719 81.8855ZM64.1406 81.75L63.5677 99.4115L80.599 99.4063L80.8906 81.6667L64.1406 81.75ZM81.9948 81.6667L81.7031 99.4063L99.4583 99.3959L99.4531 81.6303L81.9948 81.6667ZM100.563 81.6407L100.573 99.4063L118.328 99.3959L118.031 81.6563L100.563 81.6407ZM196.807 99.3959L198.823 99.4063L197.385 83.0521L195.396 82.7969L196.807 99.3959ZM119.135 81.6563L119.432 99.3959H136.453L135.87 81.7344L119.135 81.6563ZM190.531 99.3855H195.693L194.271 82.6928L189.188 82.4792L190.531 99.3855ZM136.99 81.7344L137.568 99.3855H153.177L152.333 81.849L136.99 81.7344ZM181.188 99.3855H189.417L188.068 82.4428L179.958 82.2448L181.188 99.3855ZM153.448 81.8594L154.292 99.3855H167.875L166.823 82.0157L153.448 81.8594ZM168.99 99.3855H180.073L178.849 82.2188L167.938 82.0313L168.99 99.3855ZM195.219 81.6563L197.167 81.9011L192.88 65.9428L191.057 65.6459L195.219 81.6563ZM7.08333 66.0105L2.84375 81.875L4.77083 81.7084L8.91667 65.7136L7.08333 66.0105ZM10.099 65.5469L5.92708 81.6407L10.9688 81.4271L14.9115 65.1719L10.099 65.5469ZM189.021 81.3646L194.052 81.5678L189.865 65.4792L185.063 65.099L189.021 81.3646ZM16.0781 65.0834L12.125 81.3959L20.1875 81.1823L23.7604 64.7084L16.0781 65.0834ZM179.813 81.1303L187.865 81.3334L183.896 65.0209L176.208 64.6459L179.813 81.1303ZM24.9115 64.6511L21.3281 81.1667L32.1927 80.974L35.2708 64.2917L24.9115 64.6511ZM167.813 80.9219L178.672 81.1042L175.068 64.5938L164.719 64.25L167.813 80.9219ZM36.4115 64.2657L33.3333 80.9532L46.6615 80.7865L49.0938 63.9584L36.4115 64.2657ZM153.354 80.7553L166.672 80.9115L163.578 64.224L150.896 63.9323L153.354 80.7553ZM50.224 63.9428L47.7865 80.7813L63.099 80.6563L64.7813 63.7136L50.224 63.9428ZM136.917 80.6198L152.229 80.7344L149.776 63.9011L135.219 63.6823L136.917 80.6198ZM65.901 63.698L64.2188 80.6407L80.9219 80.5625L81.7813 63.5573L65.901 63.698ZM119.099 80.5521L135.807 80.6198L134.104 63.6823L118.234 63.5469L119.099 80.5521ZM82.8854 63.5469L82.026 80.5625L99.4531 80.5261L99.4427 63.4948L82.8854 63.5469ZM100.563 80.5261L117.99 80.5417L117.109 63.5313L100.557 63.4896L100.563 80.5261ZM14.4375 50.1198L7.58333 64.8021L9.28125 64.5313L15.9635 49.7709L14.4375 50.1198ZM190.688 64.4688L192.38 64.7396L185.516 50.0625L184 49.7084L190.688 64.4688ZM17.3021 49.5L10.5625 64.4063L15.2604 64.0313L21.625 49.0105L17.3021 49.5ZM184.719 63.9688L189.406 64.3386L182.651 49.4375L178.339 48.948L184.719 63.9688ZM22.875 48.875L16.4896 63.9532L24.0677 63.573L29.8438 48.3803L22.875 48.875ZM175.911 63.5209L183.484 63.9011L177.089 48.823L170.12 48.323L175.911 63.5209ZM31.0625 48.2969L25.276 63.5313L35.5313 63.1823L40.4844 47.8334L31.0625 48.2969ZM164.458 63.1303L174.703 63.4688L168.901 48.2448L159.49 47.7917L164.458 63.1303ZM41.6667 47.7813L36.7083 63.1459L49.3021 62.849L53.2188 47.3855L41.6667 47.7813ZM150.688 62.8125L163.271 63.1042L158.302 47.7396L146.75 47.3542L150.688 62.8125ZM54.375 47.3542L50.4479 62.823L64.9271 62.5938L67.6458 47.0521L54.375 47.3542ZM135.068 62.5782L149.542 62.7969L145.604 47.3282L132.344 47.0365L135.068 62.5782ZM68.776 47.0365L66.0573 62.5834L81.8542 62.4428L83.2396 46.8542L68.776 47.0365ZM118.146 62.4271L133.938 62.5573L131.214 47.0209L116.75 46.8438L118.146 62.4271ZM84.3594 46.8334L82.974 62.4375L99.4531 62.3855L99.4427 46.7761L84.3594 46.8334ZM100.557 62.3855L117.031 62.4271L115.63 46.8282L100.547 46.7761L100.557 62.3855ZM24.4219 35.8282L15.3333 48.7813L16.5938 48.4896L25.4115 35.5469L24.4219 35.8282ZM183.37 48.4323L184.625 48.7188L175.526 35.7813L174.536 35.5053L183.37 48.4323ZM27.0469 35.1198L18.0677 48.2917L22.1771 47.8282L30.625 34.6094L27.0469 35.1198ZM177.786 47.7709L181.891 48.2396L172.896 35.073L169.328 34.5678L177.786 47.7709ZM32.0625 34.4167L23.5625 47.7136L30.3438 47.2188L38.0156 33.8803L32.0625 34.4167ZM169.625 47.1771L176.401 47.6615L167.885 34.375L161.943 33.8386L169.625 47.1771ZM39.3646 33.7657L31.6667 47.1615L40.9167 46.7032L47.4896 33.2657L39.3646 33.7657ZM159.068 46.6615L168.302 47.1094L160.599 33.724L152.484 33.224L159.068 46.6615ZM48.75 33.1875L42.1667 46.6511L53.5625 46.2657L58.7604 32.7605L48.75 33.1875ZM146.422 46.2396L157.802 46.6146L151.203 33.1563L141.203 32.7344L146.422 46.2396ZM59.9583 32.7136L54.7604 46.2396L67.8802 45.9428L71.474 32.3855L59.9583 32.7136ZM132.109 45.9219L145.219 46.2136L140.005 32.698L128.495 32.3855L132.109 45.9219ZM72.6302 32.3542L69.0365 45.9219L83.3698 45.7396L85.1979 32.1563L72.6302 32.3542ZM116.62 45.724L130.948 45.8959L127.339 32.3386L114.771 32.1355L116.62 45.724ZM86.3229 32.1355L84.4896 45.724L99.4427 45.6511L99.4323 32.0573L86.3229 32.1355ZM100.547 45.6615L115.5 45.7136L113.651 32.1302L100.536 32.0677L100.547 45.6615ZM36.6979 23.573L25.9792 34.2396L26.4375 34.1094L36.7865 23.5469L36.6979 23.573ZM173.51 34.0573L173.958 34.1771L163.229 23.5313L163.151 23.5052L173.51 34.0573ZM39.0052 22.875L28.2656 33.8282L31.4688 33.375L41.526 22.4636L39.0052 22.875ZM168.479 33.323L171.672 33.7761L160.927 22.8282L158.411 22.4167L168.479 33.323ZM43.2969 22.1719L33.1302 33.2084L38.75 32.698L47.8906 21.6927L43.2969 22.1719ZM161.203 32.6563L166.823 33.1615L156.646 22.1355L152.057 21.6563L161.203 32.6563ZM49.4688 21.5313L40.276 32.6042L48.0938 32.1198L55.9271 21.0573L49.4688 21.5313ZM151.865 32.0782L159.682 32.5573L150.479 21.5L144.026 21.0313L151.865 32.0782ZM57.3542 20.9636L49.5052 32.0521L59.2396 31.6302L65.4271 20.5573L57.3542 20.9636ZM140.724 31.6042L150.458 32.0157L142.599 20.9375L134.536 20.5313L140.724 31.6042ZM66.7344 20.5L60.5365 31.5834L71.8177 31.2605L76.0833 20.1823L66.7344 20.5ZM128.156 31.25L139.427 31.5677L133.219 20.474L123.859 20.1667L128.156 31.25ZM77.2969 20.1459L73.0156 31.2448L85.375 31.0417L87.5573 19.9532L77.2969 20.1459ZM114.594 31.0313L126.953 31.224L122.661 20.1407L112.396 19.948L114.594 31.0313ZM88.6875 19.9375L86.5052 31.0313L99.4271 30.9636L99.4167 19.875L88.6875 19.9375ZM100.536 30.9532L113.458 31.0157L111.255 19.9271L100.531 19.8698L100.536 30.9532ZM52.7552 13.1094L41.026 21.4115L42.8073 21.1198L53.7344 12.9323L52.7552 13.1094ZM157.13 21.0782L158.901 21.3646L147.167 13.0834L146.193 12.9063L157.13 21.0782ZM56.1667 12.5052L44.974 20.875L48.9583 20.4532L58.9792 12.1719L56.1667 12.5052ZM150.979 20.4271L154.958 20.849L143.755 12.4896L140.943 12.1615L150.979 20.4271ZM61.0104 11.9532L50.8854 20.3125L56.8229 19.8855L65.4115 11.5938L61.0104 11.9532ZM143.135 19.849L149.057 20.2813L138.927 11.9271L134.526 11.5782L143.135 19.849ZM67.1458 11.4636L58.5052 19.7969L66.1198 19.4115L72.9063 11.1407L67.1458 11.4636ZM133.823 19.3855L141.432 19.7605L132.781 11.4375L127.026 11.1198L133.823 19.3855ZM74.4115 11.0573L67.6042 19.3594L76.5781 19.0625L81.2656 10.8073L74.4115 11.0573ZM123.37 19.0417L132.344 19.3438L125.526 11.0521L118.672 10.8073L123.37 19.0417ZM82.5729 10.7605L77.875 19.0261L87.8229 18.8334L90.2135 10.5938L82.5729 10.7605ZM112.141 18.823L122.083 19.0105L117.375 10.7448L109.74 10.5886L112.141 18.823ZM91.3698 10.5782L88.9792 18.823L99.4271 18.7552L99.4167 10.5157L91.3698 10.5782ZM100.531 18.7552L110.974 18.8177L108.568 10.5677L100.521 10.5157L100.531 18.7552ZM70.224 5.68754L59.151 11.0417L60.6146 10.875L70.474 5.65108L70.224 5.68754ZM139.313 10.849L140.776 11.0157L129.698 5.66671L129.443 5.63546L139.313 10.849ZM73.5625 5.28129L63.4323 10.6459L66.7344 10.3855L75.2969 5.13546L73.5625 5.28129ZM133.203 10.349L136.505 10.6146L126.365 5.25525L124.63 5.10942L133.203 10.349ZM77.7708 4.92192L69.0833 10.2448L73.9375 9.974L80.7396 4.75004L77.7708 4.92192ZM126 9.95317L130.854 10.2292L122.161 4.91671L119.188 4.73962L126 9.95317ZM82.7135 4.63546L75.8594 9.89587L81.9844 9.66671L86.6927 4.47921L82.7135 4.63546ZM117.953 9.65629L124.078 9.87504L117.219 4.61983L113.229 4.45837L117.953 9.65629ZM88.25 4.41671L83.526 9.63025L90.599 9.47921L93.0104 4.31254L88.25 4.41671ZM109.344 9.474L116.417 9.61983L111.677 4.40629L106.927 4.30212L109.344 9.474ZM94.2344 4.2865L91.8281 9.46358L99.4167 9.4115L99.4063 4.25004L94.2344 4.2865ZM100.531 9.4115L108.12 9.46358L105.698 4.2865L100.531 4.25004V9.4115ZM83.3333 3.17192L82.125 3.54692L82.3854 3.53129L83.3333 3.17192ZM117.531 3.52087L117.797 3.54171L116.604 3.17192L117.531 3.52087ZM91.3281 1.32296L85.875 3.40108L87.901 3.29171L91.5833 1.31254L91.3281 1.32296ZM112.083 3.31254L114.052 3.39067L108.599 1.31254L108.349 1.30212L112.083 3.31254ZM94.1146 1.20837L90.3021 3.26046L93.6406 3.18233L95.5781 1.16671L94.1146 1.20837ZM106.286 3.18233L109.625 3.25004L105.807 1.19796L104.344 1.16671L106.286 3.18233ZM97.1563 1.14067L95.2031 3.17192L99.4063 3.13546V1.11983L97.1563 1.14067ZM100.521 3.13546L104.729 3.1615L102.766 1.14067L100.51 1.11983L100.521 3.13546Z" fill="white"/>
</g>
</svg>
