<svg width="174" height="138" viewBox="0 0 174 138" fill="none" xmlns="http://www.w3.org/2000/svg">
<path d="M97.1458 137.792H74.9167L22.6458 63.9167H42.5417C47.625 63.9167 52.1354 63.5625 56.0833 62.8542C59.8854 62.3021 62.8542 61.599 64.9792 60.75C69.3542 58.7813 72.8125 55.8854 75.3542 52.0625C77.8802 48.3958 79.1458 44.5938 79.1458 40.6458C79.1458 36.6875 77.9479 32.9479 75.5625 29.4167C73.1563 26.0313 69.6979 23.2083 65.1875 20.9583C60.6719 18.8333 55.4479 17.7708 49.5208 17.7708H17.5625L17.9792 137.792H0V0H49.5208C56.1563 0 62.3646 1.05729 68.1458 3.16667C73.9375 5.29167 79.0208 8.32813 83.3958 12.2708C87.6146 16.0781 90.9271 20.4531 93.3333 25.3958C95.5938 30.3438 96.7292 35.4271 96.7292 40.6458C96.7292 48.9688 94.1875 56.4479 89.1042 63.0833C84.8646 68.724 79.151 73.3073 71.9583 76.8333C66.4583 78.8073 61.5885 79.7917 57.3542 79.7917L97.1458 137.792Z" fill="#5F5F5F"/>
<path d="M85.9279 0H173.97V17.7708H103.907V59.8958H157.47V77.6875H103.907V137.792H85.9279V0Z" fill="#5F5F5F"/>
</svg>
