<svg width="1888" height="237" viewBox="0 0 1888 237" fill="none" xmlns="http://www.w3.org/2000/svg">
<path d="M118.882 11.1409C138.302 11.1409 153.838 15.7244 165.49 24.8432C177.19 33.9862 183.052 47.1096 183.052 64.2134C183.052 82.427 177.6 98.5417 166.744 112.558C155.937 126.525 142.066 135.017 125.155 138.033L178.806 226.133H109.233L69.5733 143.436H68.9943L55.8709 226.133H-1.52588e-05L33.9664 11.1409H118.882ZM74.6875 107.54H82.4072C95.5306 107.54 105.687 104.79 112.9 99.2413C120.161 93.7169 123.804 85.6354 123.804 75.0209C123.804 60.9326 112.176 53.8884 88.9689 53.8884H83.2756L74.6875 107.54Z" fill="white"/>
<path d="M273.505 11.1409L239.539 226.133H183.668L217.634 11.1409H273.505Z" fill="white"/>
<path d="M356.61 5.44751C379.624 5.44751 401.215 11.3337 421.359 23.1062L392.217 66.4327C382.181 56.9279 370.602 52.1513 357.479 52.1513C350.652 52.1513 344.403 54.1295 338.758 58.0376C333.162 61.9698 330.363 66.7704 330.363 72.4154C330.363 76.613 332.342 80.2798 336.346 83.4159C340.327 86.5761 347.66 89.664 358.347 92.6795C372.749 97.07 383.171 101.316 389.612 105.417C396.101 109.47 401.143 114.487 404.761 120.47C408.428 126.453 410.262 133.931 410.262 142.857C410.262 155.788 406.908 169.49 400.226 183.964C393.592 198.39 382.712 209.873 367.611 218.413C352.485 226.953 334.561 231.44 313.863 231.826C287.23 231.826 263.251 223.672 241.973 207.316L273.045 162.253C287.905 177.113 303.2 184.543 318.977 184.543C327.71 184.543 335.092 182.276 341.074 177.692C347.057 173.133 350.048 167.319 350.048 160.226C350.048 151.156 340.905 144.16 322.644 139.19C300.643 133.087 286.386 126.549 279.896 119.602C273.455 112.654 270.247 103.39 270.247 91.811C270.247 67.4941 278.545 47.0371 295.142 30.4399C311.788 13.7944 332.293 5.44751 356.61 5.44751Z" fill="white"/>
<path d="M516.569 11.1409L542.236 126.067L606.406 11.1409H661.987L660.636 226.133H604.669L608.722 102.426H608.143L536.833 226.133H514.639L484.918 102.426H484.339L446.706 226.133H391.124L461.566 11.1409H516.569Z" fill="white"/>
<path d="M907.089 97.7937C907.089 118.516 901.106 140.01 889.141 162.253C877.175 184.519 860.24 201.912 838.384 214.457C816.504 227.001 793.031 233.273 767.942 233.273C737.691 233.273 713.157 224.396 694.316 206.641C675.524 188.837 666.139 165.389 666.139 136.295C666.139 112.364 672.436 90.267 685.053 70.0029C697.718 49.7389 714.918 33.6965 736.678 21.8517C758.486 9.9586 780.993 4 804.225 4C822.607 4 839.856 8.00457 855.946 15.9654C872.013 23.9505 884.557 35.0474 893.579 49.2564C902.578 63.4171 907.089 79.6043 907.089 97.7937ZM776.53 179.043C789.461 179.043 801.378 175.521 812.33 168.428C823.258 161.288 831.943 152.072 838.384 140.734C844.873 129.42 848.13 118.251 848.13 107.25C848.13 93.5479 842.943 81.9684 832.594 72.5118C822.221 63.007 809.821 58.2305 795.347 58.2305C784.154 58.2305 773.008 61.2942 761.96 67.3976C750.959 73.4527 742.081 81.6307 735.327 91.9074C728.572 102.136 725.195 113.522 725.195 126.067C725.195 141.458 729.971 154.123 739.573 164.086C749.15 174.073 761.477 179.043 776.53 179.043Z" fill="white"/>
<path d="M1024.5 58.4873L1031.88 11.1321H908.443L874.452 226.124H930.371L943.736 141.739H1005.06L1012.51 94.4077H951.19L956.884 58.4873H1024.5Z" stroke="#0D0D0D" stroke-width="21.23"/>
<path d="M1031.84 11.1409L1024.41 58.4237H956.858L951.165 94.4165H1012.44L1005.11 141.699H943.735L930.322 226.133H874.451L908.417 11.1409H1031.84Z" fill="white"/>
<path d="M1093.61 11.1409L1059.64 226.133H1003.77L1037.74 11.1409H1093.61Z" fill="white"/>
<path d="M1246.61 11.1409L1239.18 58.4237H1192.96L1166.52 226.133H1110.55L1137.09 58.4237H1090.96L1098.29 11.1409H1246.61Z" fill="white"/>
<path d="M1307.84 11L1389.38 142.427H1389.96L1410.8 11H1466.67L1432.7 225.992H1376.83L1295.29 94.2757H1294.71L1273.87 225.992H1218L1251.97 11H1307.84Z" fill="white"/>
<path d="M1594.21 11L1586.87 58.2828H1520.39L1514.7 94.2757H1577.71L1570.28 141.558H1507.27L1501.28 178.613H1567.77L1560.34 225.992H1437.98L1471.95 11H1594.21Z" fill="white"/>
<path d="M1678.04 5.44751C1701.06 5.44751 1722.65 11.3337 1742.79 23.1062L1713.65 66.4327C1703.62 56.9279 1692.04 52.1513 1678.91 52.1513C1672.09 52.1513 1665.84 54.1295 1660.19 58.0376C1654.6 61.9698 1651.8 66.7704 1651.8 72.4154C1651.8 76.613 1653.78 80.2798 1657.78 83.4159C1661.76 86.5761 1669.09 89.664 1679.78 92.6795C1694.18 97.07 1704.6 101.316 1711.05 105.417C1717.54 109.47 1722.58 114.487 1726.2 120.47C1729.86 126.453 1731.7 133.931 1731.7 142.857C1731.7 155.788 1728.34 169.49 1721.66 183.964C1715.03 198.39 1704.15 209.873 1689.04 218.413C1673.92 226.953 1656 231.44 1635.3 231.826C1608.66 231.826 1584.68 223.672 1563.41 207.316L1594.48 162.253C1609.34 177.113 1624.63 184.543 1640.41 184.543C1649.14 184.543 1656.53 182.276 1662.51 177.692C1668.49 173.133 1671.48 167.319 1671.48 160.226C1671.48 151.156 1662.34 144.16 1644.08 139.19C1622.08 133.087 1607.82 126.549 1601.33 119.602C1594.89 112.654 1591.68 103.39 1591.68 91.811C1591.68 67.4941 1599.98 47.0371 1616.58 30.4399C1633.22 13.7944 1653.73 5.44751 1678.04 5.44751Z" fill="white"/>
<path d="M1823.18 5.44751C1846.19 5.44751 1867.78 11.3337 1887.93 23.1062L1858.79 66.4327C1848.75 56.9279 1837.17 52.1513 1824.05 52.1513C1817.22 52.1513 1810.97 54.1295 1805.33 58.0376C1799.73 61.9698 1796.93 66.7704 1796.93 72.4154C1796.93 76.613 1798.91 80.2798 1802.91 83.4159C1806.89 86.5761 1814.23 89.664 1824.92 92.6795C1839.32 97.07 1849.74 101.316 1856.18 105.417C1862.67 109.47 1867.71 114.487 1871.33 120.47C1875 126.453 1876.83 133.931 1876.83 142.857C1876.83 155.788 1873.48 169.49 1866.79 183.964C1860.16 198.39 1849.28 209.873 1834.18 218.413C1819.05 226.953 1801.13 231.44 1780.43 231.826C1753.8 231.826 1729.82 223.672 1708.54 207.316L1739.61 162.253C1754.47 177.113 1769.77 184.543 1785.54 184.543C1794.28 184.543 1801.66 182.276 1807.64 177.692C1813.63 173.133 1816.62 167.319 1816.62 160.226C1816.62 151.156 1807.47 144.16 1789.21 139.19C1767.21 133.087 1752.95 126.549 1746.46 119.602C1740.02 112.654 1736.81 103.39 1736.81 91.811C1736.81 67.4941 1745.11 47.0371 1761.71 30.4399C1778.36 13.7944 1798.86 5.44751 1823.18 5.44751Z" fill="white"/>
</svg>
