<svg width="248" height="104" viewBox="0 0 248 104" fill="none" xmlns="http://www.w3.org/2000/svg">
<mask id="mask0_11_309" style="mask-type:luminance" maskUnits="userSpaceOnUse" x="108" y="0" width="140" height="104">
<path d="M108.667 0.666626H247.333V103.333H108.667V0.666626Z" fill="white"/>
</mask>
<g mask="url(#mask0_11_309)">
<mask id="mask1_11_309" style="mask-type:luminance" maskUnits="userSpaceOnUse" x="102" y="-17" width="159" height="130">
<path d="M102.573 16.1198L236.693 -16.3906L260.01 79.8281L125.896 112.333L102.573 16.1198Z" fill="white"/>
</mask>
<g mask="url(#mask1_11_309)">
<mask id="mask2_11_309" style="mask-type:luminance" maskUnits="userSpaceOnUse" x="102" y="-17" width="159" height="130">
<path d="M102.573 16.1198L236.693 -16.3906L260.01 79.8281L125.896 112.333L102.573 16.1198Z" fill="white"/>
</mask>
<g mask="url(#mask2_11_309)">
<path d="M244.74 29.1093C245.24 31.0052 246.292 32.1406 247.156 32.7812C245.854 34.5416 244.542 36.2968 243.224 38.0468C241.792 36.9687 239.458 34.677 238.437 30.8177C236.021 34.0572 233.573 37.2708 231.094 40.4635C228.266 44.1093 225.401 47.7239 222.484 51.3072C219.573 54.8906 216.615 58.4427 213.604 61.9531C210.594 65.4635 207.521 68.927 204.38 72.3385C201.234 75.7448 198.016 79.0989 194.687 82.3541C191.354 85.6145 187.906 88.7864 184.26 91.7812C180.599 94.7656 176.771 97.6145 172.406 99.9583C170.213 101.115 167.88 102.151 165.245 102.792C163.922 103.099 162.521 103.302 161.031 103.281C160.292 103.276 159.526 103.198 158.76 103.057C157.99 102.906 157.224 102.682 156.479 102.38C155.734 102.068 155.021 101.682 154.359 101.229C153.76 100.766 153.151 100.339 152.62 99.7812C152.057 99.2708 151.583 98.6614 151.109 98.0573C150.901 97.7395 150.693 97.4218 150.49 97.0989C150.38 96.9375 150.292 96.7708 150.208 96.6041L149.953 96.0989C149.302 94.75 148.865 93.3281 148.646 91.9531L148.552 91.4375L148.495 90.9218C148.463 90.5833 148.422 90.2395 148.396 89.901C148.375 89.2343 148.328 88.5573 148.359 87.9062C148.417 85.2812 148.823 82.802 149.38 80.4166C149.943 78.0312 150.646 75.7343 151.422 73.4895C152.984 68.9947 154.828 64.6927 156.74 60.4635C158.656 56.2291 160.656 52.0729 162.641 47.9375C164.62 43.7968 166.588 39.6822 168.417 35.5416C170.234 31.4114 171.943 27.2447 173.177 23.0781C173.786 21 174.266 18.9166 174.5 16.9166L174.594 15.8072L174.599 15.4479C174.604 15.2135 174.615 14.9687 174.615 14.7343L174.583 14.0468C174.516 13.151 174.365 12.3125 174.109 11.6041C173.838 10.9062 173.484 10.3333 173.01 9.84891C172.891 9.72912 172.786 9.59891 172.635 9.49996L172.427 9.3385C172.359 9.28121 172.302 9.22391 172.208 9.17183C172.031 9.06766 171.865 8.95829 171.693 8.84891L171.151 8.57287C170.417 8.23433 169.625 8.00516 168.776 7.86975C167.927 7.73433 167.005 7.73954 166.073 7.80725C164.193 7.94787 162.213 8.47912 160.26 9.18746C158.302 9.91662 156.354 10.8385 154.448 11.875C150.625 13.9635 146.953 16.4947 143.396 19.2083C139.838 21.927 136.396 24.8437 133.047 27.875C129.703 30.9114 126.443 34.0625 123.266 37.2968C121.672 38.9166 120.104 40.552 118.557 42.2083C117.786 43.0416 117.021 43.875 116.26 44.7135C115.505 45.5416 114.74 46.401 114.026 47.2187L109.083 42.9687C109.875 42.052 110.641 41.1979 111.427 40.3333C112.208 39.4687 112.995 38.6093 113.786 37.7604C115.375 36.0625 116.979 34.3802 118.609 32.7239C121.865 29.4062 125.213 26.177 128.672 23.0416C132.125 19.9114 135.693 16.8802 139.432 14.0208C143.177 11.1718 147.083 8.4687 151.323 6.14579C153.448 4.99475 155.661 3.93746 158.005 3.06246C160.359 2.2135 162.849 1.51558 165.557 1.30204C166.911 1.20308 168.302 1.19787 169.724 1.41662C171.146 1.63016 172.578 2.04162 173.922 2.67183C174.255 2.8385 174.594 2.99996 174.917 3.17704L175.865 3.77079C176.016 3.85933 176.177 3.99475 176.333 4.11454L176.802 4.48433C177.12 4.7187 177.401 5.01037 177.687 5.30204C178.823 6.45829 179.687 7.88537 180.229 9.33329C180.755 10.7864 180.99 12.2291 181.094 13.6197L181.135 14.651C181.141 14.9895 181.125 15.3229 181.12 15.6562L181.104 16.1614L181.068 16.651L180.984 17.625C180.687 20.1875 180.115 22.5937 179.432 24.9218C178.057 29.5625 176.255 33.9062 174.385 38.177C172.5 42.4375 170.51 46.6093 168.526 50.7552C166.536 54.901 164.557 59.0156 162.682 63.151C160.812 67.2864 159.042 71.4375 157.588 75.6198C156.865 77.7135 156.224 79.8125 155.734 81.8958C155.245 83.9791 154.922 86.0625 154.88 88.026C154.854 88.526 154.901 88.9948 154.906 89.4739C154.922 89.7083 154.953 89.9375 154.974 90.1666L155.01 90.5104L155.073 90.8385C155.208 91.7343 155.479 92.526 155.818 93.2395L155.948 93.5052C155.99 93.5937 156.036 93.6823 156.094 93.7604C156.198 93.9166 156.302 94.0781 156.401 94.2448C156.651 94.5364 156.87 94.8489 157.167 95.1041C157.417 95.3906 157.766 95.6093 158.068 95.8593C158.354 96.052 158.656 96.2135 158.969 96.3489C159.286 96.4739 159.625 96.5781 159.984 96.651C160.349 96.7083 160.729 96.7552 161.13 96.7604C161.943 96.7708 162.828 96.6562 163.74 96.4427C165.573 96 167.484 95.1875 169.344 94.1979C173.083 92.1979 176.677 89.5573 180.12 86.7395C183.573 83.9062 186.891 80.8541 190.125 77.6927C193.359 74.5312 196.5 71.2552 199.583 67.9166C202.667 64.5729 205.687 61.1614 208.656 57.7031C211.625 54.2447 214.547 50.7395 217.422 47.1927C220.302 43.651 223.141 40.0729 225.943 36.4635C228.396 33.302 230.818 30.1197 233.213 26.9114C229.234 27.0052 226.406 25.3645 224.974 24.2864C226.245 22.5937 227.51 20.901 228.766 19.2031C229.63 19.8385 231.016 20.5208 232.963 20.4583C234.901 20.3958 237.427 19.5729 240.469 17.2031L245.588 20.8072C244.281 24.5572 244.24 27.2031 244.74 29.1093Z" fill="#9CFF1E"/>
</g>
</g>
</g>
<path d="M0.394287 60.6828V36.7661H19.186C21.0037 36.7661 22.5922 37.1619 23.9568 37.9536C25.3318 38.7349 26.3995 39.8182 27.1651 41.2036C27.9412 42.5786 28.3318 44.1567 28.3318 45.9328C28.3318 47.6567 27.9568 49.214 27.2068 50.5994C26.4568 51.9744 25.4203 53.0474 24.1026 53.8078L28.3318 60.6828H17.811L14.4985 55.0786H9.26929V60.6828H0.394287ZM9.26929 47.5578H17.4776C17.7693 47.5578 18.0662 47.5369 18.3735 47.4953C18.6755 47.4536 18.936 47.3234 19.1443 47.0994C19.3526 46.8651 19.4568 46.4744 19.4568 45.9328C19.4568 45.3807 19.3526 44.9901 19.1443 44.7661C18.936 44.5317 18.6755 44.3911 18.3735 44.3494C18.0662 44.3078 17.7693 44.2869 17.4776 44.2869H9.26929V47.5578Z" fill="white"/>
<path d="M29.3708 60.6828V36.7661H38.2458V60.6828H29.3708Z" fill="white"/>
<path d="M54.5387 61.0161C51.2887 61.0161 48.523 60.7765 46.247 60.3077C43.9657 59.839 42.2314 58.9692 41.0387 57.7036C39.8564 56.4275 39.2678 54.6098 39.2678 52.2452H48.1637C48.1637 52.6359 48.3303 52.9744 48.6637 53.2661C49.0074 53.5577 49.6637 53.7869 50.622 53.9536C51.5907 54.1098 53.0178 54.1827 54.8928 54.1827C56.6428 54.1827 57.9449 54.1515 58.8095 54.0786C59.6845 53.9952 60.2522 53.865 60.5178 53.6827C60.7939 53.5057 60.9345 53.2609 60.9345 52.9536C60.9345 52.6202 60.7887 52.3702 60.497 52.2036C60.2157 52.0265 59.622 51.9015 58.7053 51.8286C57.7991 51.7452 56.4137 51.6775 54.5387 51.6202C50.9397 51.5109 48.0439 51.2036 45.8512 50.7036C43.6689 50.2036 42.0855 49.4119 41.1012 48.3286C40.1116 47.2452 39.622 45.7817 39.622 43.9327C39.622 41.2973 40.872 39.3859 43.372 38.2036C45.8824 37.0265 49.497 36.4327 54.2053 36.4327C57.3303 36.4327 59.9657 36.7036 62.122 37.2452C64.2887 37.7869 65.9397 38.6723 67.0803 39.8911C68.2157 41.115 68.7887 42.7452 68.7887 44.7869H59.9137C59.9137 44.1515 59.3824 43.74 58.3303 43.5577C57.2887 43.365 55.6845 43.2661 53.5178 43.2661C52.1272 43.2661 51.0699 43.2973 50.3512 43.3494C49.6428 43.4067 49.1532 43.5161 48.8928 43.6827C48.6272 43.839 48.497 44.0734 48.497 44.3911C48.497 44.6827 48.6324 44.9015 48.9137 45.0369C49.2053 45.1775 49.7782 45.2661 50.6428 45.3077C51.5178 45.3494 52.8147 45.4067 54.5387 45.4744C56.9137 45.5734 59.0387 45.7192 60.9137 45.9119C62.7991 46.1098 64.4032 46.4484 65.7262 46.9327C67.0439 47.4067 68.0595 48.0994 68.7678 49.0161C69.4762 49.9327 69.8303 51.1827 69.8303 52.7661C69.8303 54.9484 69.2314 56.6359 68.0387 57.8286C66.8564 59.0265 65.1324 59.8598 62.872 60.3286C60.6064 60.7869 57.8303 61.0161 54.5387 61.0161Z" fill="white"/>
<path d="M70.8538 60.6828V36.7661H81.7913L89.1663 50.4328L96.5413 36.7661H107.479V60.6828H98.5829V49.3078L92.0621 60.6828H86.2496L79.7288 49.3078V60.6828H70.8538Z" fill="white"/>
<path d="M123.539 61.0161C118.273 61.0161 114.445 60.0057 112.06 57.9744C109.685 55.9484 108.497 52.8494 108.497 48.6827C108.497 44.5473 109.685 41.4692 112.06 39.4536C114.445 37.4432 118.273 36.4327 123.539 36.4327C128.773 36.4327 132.586 37.4432 134.976 39.4536C137.377 41.4692 138.581 44.5473 138.581 48.6827C138.581 52.839 137.377 55.9327 134.976 57.9744C132.586 60.0057 128.773 61.0161 123.539 61.0161ZM123.539 53.5161C125.289 53.5161 126.601 53.2869 127.476 52.8286C128.362 52.3702 128.956 51.7817 129.247 51.0577C129.539 50.3234 129.685 49.5317 129.685 48.6827C129.685 47.8494 129.539 47.0734 129.247 46.3494C128.956 45.6307 128.362 45.0473 127.476 44.5994C126.601 44.1567 125.289 43.9327 123.539 43.9327C121.789 43.9327 120.466 44.1567 119.581 44.5994C118.706 45.0473 118.122 45.6307 117.831 46.3494C117.539 47.0734 117.393 47.8494 117.393 48.6827C117.393 49.5317 117.539 50.3286 117.831 51.0786C118.122 51.8182 118.711 52.4067 119.601 52.8494C120.487 53.2973 121.799 53.5161 123.539 53.5161Z" fill="white"/>
<path d="M-0.00158691 80.6941V70.465H10.8109V73.6941H3.79008V74.7775H9.93591V77.9858H3.79008V80.6941H-0.00158691Z" fill="#9CFF1E"/>
<path d="M11.2365 80.6941V70.465H15.0281V80.6941H11.2365Z" fill="#9CFF1E"/>
<path d="M19.8441 80.6941V73.6941H15.4691V70.465H28.0316V73.6941H23.6566V80.6941H19.8441Z" fill="#9CFF1E"/>
<path d="M28.4584 80.6941V70.465H33.4167L37.8334 76.5066V70.465H41.625V80.6941H36.6667L32.25 74.6525V80.6941H28.4584Z" fill="#9CFF1E"/>
<path d="M42.2068 80.6941V70.465H53.0193V73.3816H45.9985V74.34H53.0193V76.8191H45.9985V77.7775H53.0193V80.6941H42.2068Z" fill="#9CFF1E"/>
<path d="M59.8198 80.8399C58.4292 80.8399 57.2469 80.741 56.2781 80.5483C55.3042 80.3399 54.5594 79.9649 54.049 79.4233C53.549 78.8816 53.299 78.1056 53.299 77.0899H57.0906C57.0906 77.2566 57.1583 77.4024 57.299 77.5274C57.45 77.6524 57.7365 77.7514 58.1531 77.8191C58.5698 77.892 59.174 77.9233 59.9656 77.9233C60.7156 77.9233 61.2781 77.9128 61.6531 77.8816C62.0281 77.8399 62.2677 77.7878 62.3823 77.7149C62.4917 77.6316 62.549 77.5274 62.549 77.4024C62.549 77.2514 62.4865 77.142 62.3615 77.0691C62.2469 77.0014 61.9969 76.9545 61.6115 76.9233C61.2208 76.8816 60.6219 76.8503 59.8198 76.8191C58.2885 76.7774 57.0542 76.6524 56.1115 76.4441C55.1792 76.2253 54.4969 75.8816 54.0698 75.4233C53.6531 74.9545 53.4448 74.3295 53.4448 73.5483C53.4448 72.4128 53.976 71.5899 55.049 71.0899C56.1167 70.5795 57.6583 70.3191 59.674 70.3191C61.0073 70.3191 62.1375 70.4389 63.0698 70.6733C63.9969 70.9128 64.7052 71.2931 65.1948 71.8191C65.6792 72.3347 65.924 73.0274 65.924 73.9024H62.1115C62.1115 73.6264 61.8875 73.4441 61.4448 73.3608C60.9969 73.2774 60.3094 73.2358 59.3823 73.2358C58.799 73.2358 58.3458 73.2514 58.0281 73.2774C57.7208 73.3087 57.5125 73.3556 57.4031 73.4233C57.2885 73.4962 57.2365 73.6003 57.2365 73.7358C57.2365 73.8608 57.299 73.9545 57.424 74.0066C57.549 74.0639 57.7885 74.1056 58.1531 74.1316C58.5281 74.1472 59.0802 74.1681 59.8198 74.1941C60.8302 74.2358 61.7417 74.2983 62.549 74.3816C63.351 74.4649 64.0333 74.6108 64.5906 74.8191C65.1583 75.017 65.5958 75.3139 65.9031 75.7149C66.2052 76.1056 66.3615 76.6316 66.3615 77.2983C66.3615 78.2462 66.101 78.9753 65.5906 79.4858C65.0906 79.9858 64.351 80.3399 63.3823 80.5483C62.4083 80.741 61.2208 80.8399 59.8198 80.8399Z" fill="#9CFF1E"/>
<path d="M73.1595 80.8399C71.7689 80.8399 70.5866 80.741 69.6178 80.5483C68.6439 80.3399 67.8991 79.9649 67.3887 79.4233C66.8887 78.8816 66.6387 78.1056 66.6387 77.0899H70.4303C70.4303 77.2566 70.498 77.4024 70.6387 77.5274C70.7897 77.6524 71.0762 77.7514 71.4928 77.8191C71.9095 77.892 72.5137 77.9233 73.3053 77.9233C74.0553 77.9233 74.6178 77.9128 74.9928 77.8816C75.3678 77.8399 75.6074 77.7878 75.722 77.7149C75.8314 77.6316 75.8887 77.5274 75.8887 77.4024C75.8887 77.2514 75.8262 77.142 75.7012 77.0691C75.5866 77.0014 75.3366 76.9545 74.9512 76.9233C74.5605 76.8816 73.9616 76.8503 73.1595 76.8191C71.6283 76.7774 70.3939 76.6524 69.4512 76.4441C68.5189 76.2253 67.8366 75.8816 67.4095 75.4233C66.9928 74.9545 66.7845 74.3295 66.7845 73.5483C66.7845 72.4128 67.3158 71.5899 68.3887 71.0899C69.4564 70.5795 70.998 70.3191 73.0137 70.3191C74.347 70.3191 75.4772 70.4389 76.4095 70.6733C77.3366 70.9128 78.0449 71.2931 78.5345 71.8191C79.0189 72.3347 79.2637 73.0274 79.2637 73.9024H75.4512C75.4512 73.6264 75.2272 73.4441 74.7845 73.3608C74.3366 73.2774 73.6491 73.2358 72.722 73.2358C72.1387 73.2358 71.6855 73.2514 71.3678 73.2774C71.0605 73.3087 70.8522 73.3556 70.7428 73.4233C70.6283 73.4962 70.5762 73.6003 70.5762 73.7358C70.5762 73.8608 70.6387 73.9545 70.7637 74.0066C70.8887 74.0639 71.1283 74.1056 71.4928 74.1316C71.8678 74.1472 72.4199 74.1681 73.1595 74.1941C74.1699 74.2358 75.0814 74.2983 75.8887 74.3816C76.6908 74.4649 77.373 74.6108 77.9303 74.8191C78.498 75.017 78.9355 75.3139 79.2428 75.7149C79.5449 76.1056 79.7012 76.6316 79.7012 77.2983C79.7012 78.2462 79.4408 78.9753 78.9303 79.4858C78.4303 79.9858 77.6908 80.3399 76.722 80.5483C75.748 80.741 74.5605 80.8399 73.1595 80.8399Z" fill="#9CFF1E"/>
</svg>
