<?xml version="1.0" encoding="UTF-8"?>
<svg id="Layer_1" data-name="Layer 1" xmlns="http://www.w3.org/2000/svg" viewBox="0 0 510.17773 281.94239">
  <g>
    <path d="m22.38086,248.48829c-6.50195,0-11.85547-2.4375-16.06543-7.3125s-6.31543-10.93066-6.31543-18.16992v-61.15918h65.14746v37.00586c0,4.1377,1.10742,7.09082,3.32422,8.86328,2.21582,1.77246,5.16895,2.65918,8.86328,2.65918,3.54492,0,6.34961-.84863,8.41992-2.54785,2.06738-1.69727,3.10254-4.61523,3.10254-8.75293v-109.24316h66.47656v133.1748c0,7.23926-2.10547,13.29492-6.31543,18.16992s-9.56641,7.3125-16.06543,7.3125H22.38086Z" stroke-width="0"/>
    <path d="m167.96289,248.48829l-32.7959-158.65723h68.91406l6.20508,29.4707,7.75586,36.5625h1.10742l7.97754-36.11914,6.64746-29.91406h57.3916l6.86914,31.24316,7.75586,34.79004h1.10742l7.3125-34.56836,6.64746-31.46484h50.52246l-33.0166,158.65723h-69.5791l-7.09082-30.80078-7.97656-35.23242h-1.1084l-7.97754,35.01074-7.09082,31.02246h-69.57812Z" stroke-width="0"/>
    <path d="m372.93262,248.48829c-6.50195,0-11.85547-2.4375-16.06543-7.3125s-6.31543-10.93066-6.31543-18.16992v-107.69238c0-7.38574,2.10547-13.47852,6.31543-18.28125,4.20996-4.79883,9.56348-7.20117,16.06543-7.20117h113.89648c6.49902,0,11.85547,2.40234,16.06543,7.20117,4.20996,4.80273,6.31543,10.89551,6.31543,18.28125v43.87402h-65.36914v-22.1582c0-4.13379-1.21875-7.09082-3.65625-8.86426-2.4375-1.77246-5.79883-2.6582-10.08203-2.6582-4.1377,0-7.38867.85156-9.75,2.54785-2.36523,1.7002-3.5459,4.61914-3.5459,8.75293v64.26074c0,4.1377,1.25391,7.09082,3.76758,8.86328,2.50977,1.77246,5.83398,2.65918,9.97168,2.65918,4.13379,0,7.38477-.84863,9.75-2.54785,2.36133-1.69727,3.54492-4.61523,3.54492-8.75293v-22.15918h65.36914v43.875c0,7.23926-2.10547,13.29492-6.31543,18.16992s-9.56641,7.3125-16.06543,7.3125h-113.89648Z" stroke-width="0"/>
  </g>
  <g>
    <path d="m306.04668,28.49042c-2.66648-.84021-5.48919.18717-6.9001,2.51174-1.33894,2.20551-1.02264,5.19955.84643,7.0119.68265.66177.70797,1.23247.24063,1.95288-1.72795,2.66323-3.37001,5.38731-5.20976,7.97087-1.33213,1.8707-2.93021,3.55497-4.96202,4.73087-2.40394,1.39136-4.66572.69524-5.57108-1.90653-.57144-1.64221-.94727-3.40378-1.08099-5.13735-.4278-5.54665-.18688-11.07597.75817-16.5736.17488-1.01805.47475-1.41757,1.57187-1.43519,4.00498-.06412,6.67413-3.27184,6.82414-6.47259.14808-3.16003-2.10437-5.97267-5.26278-6.71426-3.15707-.74129-6.65355.94283-7.97842,3.84298-1.28489,2.81279-.3893,6.10565,2.27037,8.0033.85472.60965,1.10409,1.21515.77535,2.22195-1.62044,4.96336-3.54608,9.79181-6.2096,14.29745-1.26327,2.1371-2.75178,4.10582-4.77944,5.59285-1.28652.94342-2.73149.83769-3.8726-.25174-1.42246-1.35819-2.5033-2.98323-3.04897-4.84934-1.57335-5.37991-3.12346-10.77003-4.50386-16.20162-.73833-2.90563-1.12038-5.90263-1.63925-8.86276-.06678-.3816-.09714-.68576-.09981-.94609l.37983-.0154c.01496-.00311.02858-.00681.04413-.00977,1.55011-.30401,2.77355-1.13474,3.8027-2.2868,1.49576-1.67405,2.15176-3.67624,1.54359-5.81097-1.16554-4.09116-5.17023-6.06744-9.2337-4.74598-3.6099,1.17398-5.64986,5.41441-4.15499,8.84528.72337,1.66028,1.87351,2.81308,3.36972,3.48478.93942.42188,1.97139.57174,3.00144.56196-.00074.00785.00104.01288.00015.02088-.30445,2.7189-.41033,5.47364-.91736,8.1533-1.0105,5.34067-2.19485,10.64994-3.39356,15.95255-.52968,2.34352-1.28519,4.63847-2.81827,6.56544-1.41298,1.77608-3.14256,2.13784-4.9752.77698-1.42053-1.05492-2.80908-2.28133-3.84742-3.69845-3.36024-4.58531-5.68777-9.72873-7.72491-15.01772-.56863-1.47651-.39552-2.4916.72737-3.69372,1.92564-2.06157,2.33493-4.58353.98251-7.13733-1.27438-2.4066-3.3361-3.52061-6.13586-3.56429-4.3817-.06841-8.4776,5.20547-5.39309,10.06028,1.45,2.28221,3.71326,3.16403,6.3759,2.98856.77772-.05124,1.23603.17266,1.36027.97215.64859,4.17394,1.30296,8.34685,1.82909,11.71301-.10543,2.66782-.04961,4.50771-.28713,6.30896-.21857,1.6585-.64385,3.31241-1.18183,4.89924-.43758,1.29096-1.5199,1.86137-2.93466,1.93467-1.30296.06738-2.29717-.50555-3.24074-1.22344-4.03401-3.06897-6.8887-7.12192-9.49151-11.39227-.55545-.91143-.58862-1.56565.1503-2.42348,1.67257-1.94163,1.9055-4.38096.77816-6.42846-1.20345-2.18596-3.51202-3.34336-6.05278-3.03461-2.67255.32474-4.77692,2.51055-5.08715,5.2838-.26343,2.35522,1.48006,5.02451,3.92709,5.76951.97926.29809,2.05817.30134,3.09621.36176.66251.0385,1.16658.12409,1.38677.88049,2.22965,7.66064,4.64232,15.27271,6.66554,22.98696,1.28386,4.89524,2.00827,9.93782,2.95169,14.92028.11654.61601.35909.81859.94994.6939.29675-.06264.60461-.07226.90744-.10588,6.11572-.67702,12.21648-1.59779,18.35056-1.96962,7.76519-.4709,15.55673-.52731,23.3382-.70249,6.87137-.1546,13.7309.18717,20.58287.67924,1.68397.12083,3.36424.29749,5.0491.40352.5516.03465,1.27379.30179,1.4118-.66014.50821-3.54282.86805-7.11645,1.58135-10.61795,1.37596-6.75587,2.93732-13.47428,4.45811-20.20009.5362-2.3721,1.17398-4.72125,1.77489-7.07854.13979-.5479.34073-1.00265,1.0761-.97259.69035.02828,1.40054-.00578,2.07712-.1389,2.66604-.52406,4.58235-2.71106,4.68052-5.27077.10129-2.64294-1.52049-5.05117-3.90858-5.80357Z" fill="none" stroke="#000" stroke-miterlimit="10" stroke-width="8"/>
    <path d="m306.04668,28.49042c-2.66648-.84021-5.48919.18717-6.9001,2.51174-1.33894,2.20551-1.02264,5.19955.84643,7.0119.68265.66177.70797,1.23247.24063,1.95288-1.72795,2.66323-3.37001,5.38731-5.20976,7.97087-1.33213,1.8707-2.93021,3.55497-4.96202,4.73087-2.40394,1.39136-4.66572.69524-5.57108-1.90653-.57144-1.64221-.94727-3.40378-1.08099-5.13735-.4278-5.54665-.18688-11.07597.75817-16.5736.17488-1.01805.47475-1.41757,1.57187-1.43519,4.00498-.06412,6.67413-3.27184,6.82414-6.47259.14808-3.16003-2.10437-5.97267-5.26278-6.71426-3.15707-.74129-6.65355.94283-7.97842,3.84298-1.28489,2.81279-.3893,6.10565,2.27037,8.0033.85472.60965,1.10409,1.21515.77535,2.22195-1.62044,4.96336-3.54608,9.79181-6.2096,14.29745-1.26327,2.1371-2.75178,4.10582-4.77944,5.59285-1.28652.94342-2.73149.83769-3.8726-.25174-1.42246-1.35819-2.5033-2.98323-3.04897-4.84934-1.57335-5.37991-3.12346-10.77003-4.50386-16.20162-.73833-2.90563-1.12038-5.90263-1.63925-8.86276-.06678-.3816-.09714-.68576-.09981-.94609l.37983-.0154c.01496-.00311.02858-.00681.04413-.00977,1.55011-.30401,2.77355-1.13474,3.8027-2.2868,1.49576-1.67405,2.15176-3.67624,1.54359-5.81097-1.16554-4.09116-5.17023-6.06744-9.2337-4.74598-3.6099,1.17398-5.64986,5.41441-4.15499,8.84528.72337,1.66028,1.87351,2.81308,3.36972,3.48478.93942.42188,1.97139.57174,3.00144.56196-.00074.00785.00104.01288.00015.02088-.30445,2.7189-.41033,5.47364-.91736,8.1533-1.0105,5.34067-2.19485,10.64994-3.39356,15.95255-.52968,2.34352-1.28519,4.63847-2.81827,6.56544-1.41298,1.77608-3.14256,2.13784-4.9752.77698-1.42053-1.05492-2.80908-2.28133-3.84742-3.69845-3.36024-4.58531-5.68777-9.72873-7.72491-15.01772-.56863-1.47651-.39552-2.4916.72737-3.69372,1.92564-2.06157,2.33493-4.58353.98251-7.13733-1.27438-2.4066-3.3361-3.52061-6.13586-3.56429-4.3817-.06841-8.4776,5.20547-5.39309,10.06028,1.45,2.28221,3.71326,3.16403,6.3759,2.98856.77772-.05124,1.23603.17266,1.36027.97215.64859,4.17394,1.30296,8.34685,1.82909,11.71301-.10543,2.66782-.04961,4.50771-.28713,6.30896-.21857,1.6585-.64385,3.31241-1.18183,4.89924-.43758,1.29096-1.5199,1.86137-2.93466,1.93467-1.30296.06738-2.29717-.50555-3.24074-1.22344-4.03401-3.06897-6.8887-7.12192-9.49151-11.39227-.55545-.91143-.58862-1.56565.1503-2.42348,1.67257-1.94163,1.9055-4.38096.77816-6.42846-1.20345-2.18596-3.51202-3.34336-6.05278-3.03461-2.67255.32474-4.77692,2.51055-5.08715,5.2838-.26343,2.35522,1.48006,5.02451,3.92709,5.76951.97926.29809,2.05817.30134,3.09621.36176.66251.0385,1.16658.12409,1.38677.88049,2.22965,7.66064,4.64232,15.27271,6.66554,22.98696,1.28386,4.89524,2.00827,9.93782,2.95169,14.92028.11654.61601.35909.81859.94994.6939.29675-.06264.60461-.07226.90744-.10588,6.11572-.67702,12.21648-1.59779,18.35056-1.96962,7.76519-.4709,15.55673-.52731,23.3382-.70249,6.87137-.1546,13.7309.18717,20.58287.67924,1.68397.12083,3.36424.29749,5.0491.40352.5516.03465,1.27379.30179,1.4118-.66014.50821-3.54282.86805-7.11645,1.58135-10.61795,1.37596-6.75587,2.93732-13.47428,4.45811-20.20009.5362-2.3721,1.17398-4.72125,1.77489-7.07854.13979-.5479.34073-1.00265,1.0761-.97259.69035.02828,1.40054-.00578,2.07712-.1389,2.66604-.52406,4.58235-2.71106,4.68052-5.27077.10129-2.64294-1.52049-5.05117-3.90858-5.80357Z" fill="#f8b133" stroke-width="0"/>
  </g>
  <g>
    <g>
      <path d="m243.96582,280.99122c-1.29199-.63379-2.33203-1.52539-3.12207-2.67285l2.08203-2.44043c1.38672,1.98535,3.13379,2.97852,5.23926,2.97852,1.41113,0,2.48145-.43066,3.21191-1.29199.72949-.86133,1.09375-2.12891,1.09375-3.80371v-14.10352h-9.0791v-3.12207h12.63184v17.0459c0,2.77539-.66406,4.8623-1.99121,6.26172-1.32812,1.39941-3.28418,2.09961-5.86719,2.09961-1.50781,0-2.90723-.31641-4.19922-.95117Z" stroke-width="0"/>
      <path d="m280.85645,278.53321v3.12207h-18.23047v-25.12012h17.72754v3.12207h-14.13867v7.71582h12.5957v3.0498h-12.5957v8.11035h14.6416Z" stroke-width="0"/>
      <path d="m287.7998,281.06349c-1.75879-.58594-3.13965-1.3457-4.14453-2.2793l1.32715-2.79883c.95703.86133,2.18359,1.56055,3.67871,2.09961,1.49512.53809,3.03223.80664,4.61133.80664,2.08105,0,3.63574-.35254,4.66504-1.05859,1.02832-.70508,1.54297-1.64453,1.54297-2.81641,0-.86133-.28125-1.56152-.84375-2.09961-.56152-.53809-1.25586-.95117-2.08105-1.23828s-1.99121-.60938-3.49902-.96875c-1.88965-.4541-3.41504-.90918-4.5752-1.36328s-2.15332-1.1543-2.97852-2.09961c-.8252-.94434-1.23828-2.21875-1.23828-3.82129,0-1.33984.35254-2.54785,1.05859-3.625.70605-1.07617,1.77637-1.9375,3.21191-2.58398,1.43555-.64551,3.21777-.96875,5.34766-.96875,1.48242,0,2.94238.19238,4.37793.57422,1.43555.38281,2.66699.93359,3.69629,1.65039l-1.18457,2.87109c-1.05273-.66895-2.17773-1.17773-3.37305-1.52539-1.19727-.3457-2.36914-.51953-3.5166-.51953-2.03418,0-3.55957.37109-4.57617,1.1123s-1.52441,1.69922-1.52441,2.87109c0,.86035.28711,1.56055.86035,2.09863.57422.53809,1.28613.95703,2.13574,1.25586.84863.2998,2.00293.61621,3.46289.95117,1.88965.45508,3.40918.90918,4.55762,1.36426,1.14844.4541,2.13477,1.14746,2.95996,2.08105.82617.93262,1.23828,2.18848,1.23828,3.76758,0,1.31641-.3584,2.51855-1.07617,3.60645-.71777,1.08887-1.80664,1.9502-3.26562,2.58398-1.45996.63477-3.25391.95117-5.38281.95117-1.89062,0-3.71484-.29297-5.47266-.87891Z" stroke-width="0"/>
      <path d="m309.36719,281.06349c-1.75879-.58594-3.13965-1.3457-4.14453-2.2793l1.32715-2.79883c.95703.86133,2.18359,1.56055,3.67871,2.09961,1.49512.53809,3.03223.80664,4.61133.80664,2.08105,0,3.63574-.35254,4.66504-1.05859,1.02832-.70508,1.54297-1.64453,1.54297-2.81641,0-.86133-.28125-1.56152-.84375-2.09961-.56152-.53809-1.25586-.95117-2.08105-1.23828s-1.99121-.60938-3.49902-.96875c-1.88965-.4541-3.41504-.90918-4.5752-1.36328s-2.15332-1.1543-2.97852-2.09961c-.8252-.94434-1.23828-2.21875-1.23828-3.82129,0-1.33984.35254-2.54785,1.05859-3.625.70605-1.07617,1.77637-1.9375,3.21191-2.58398,1.43555-.64551,3.21777-.96875,5.34766-.96875,1.48242,0,2.94238.19238,4.37793.57422,1.43555.38281,2.66699.93359,3.69629,1.65039l-1.18457,2.87109c-1.05273-.66895-2.17773-1.17773-3.37305-1.52539-1.19727-.3457-2.36914-.51953-3.5166-.51953-2.03418,0-3.55957.37109-4.57617,1.1123s-1.52441,1.69922-1.52441,2.87109c0,.86035.28711,1.56055.86035,2.09863.57422.53809,1.28613.95703,2.13574,1.25586.84863.2998,2.00293.61621,3.46289.95117,1.88965.45508,3.40918.90918,4.55762,1.36426,1.14844.4541,2.13477,1.14746,2.95996,2.08105.82617.93262,1.23828,2.18848,1.23828,3.76758,0,1.31641-.3584,2.51855-1.07617,3.60645-.71777,1.08887-1.80664,1.9502-3.26562,2.58398-1.45996.63477-3.25391.95117-5.38281.95117-1.89062,0-3.71484-.29297-5.47266-.87891Z" stroke-width="0"/>
      <path d="m373.51172,256.53517l-8.39746,25.12012h-3.76758l-6.85449-20.06055-6.85352,20.06055h-3.83984l-8.39746-25.12012h3.69629l6.78223,20.41895,7.06934-20.41895h3.30176l6.92578,20.52637,6.92578-20.52637h3.40918Z" stroke-width="0"/>
      <path d="m395.40234,278.53321v3.12207h-18.23047v-25.12012h17.72754v3.12207h-14.13867v7.71582h12.5957v3.0498h-12.5957v8.11035h14.6416Z" stroke-width="0"/>
      <path d="m413.86523,280.27345c-2.02246-1.1123-3.60645-2.64258-4.75488-4.59277s-1.72266-4.14551-1.72266-6.58496c0-2.44043.57422-4.63574,1.72266-6.58496,1.14844-1.9502,2.73926-3.48145,4.77246-4.59375s4.30664-1.66895,6.81836-1.66895c1.96094,0,3.75586.3291,5.38281.9873s3.01465,1.63281,4.16309,2.9248l-2.33301,2.26074c-1.88965-1.98633-4.24707-2.97852-7.06934-2.97852-1.86621,0-3.55273.41895-5.05957,1.25586-1.50781.83789-2.68652,1.99121-3.53516,3.46289-.84961,1.4707-1.27344,3.11621-1.27344,4.93457s.42383,3.46289,1.27344,4.93359c.84863,1.47168,2.02734,2.62598,3.53516,3.46289,1.50684.83789,3.19336,1.25586,5.05957,1.25586,2.79883,0,5.15527-1.00391,7.06934-3.01367l2.33301,2.26074c-1.14844,1.29199-2.54297,2.27344-4.18066,2.94238-1.63965.66992-3.43945,1.00488-5.40137,1.00488-2.51172,0-4.77832-.55664-6.7998-1.66895Z" stroke-width="0"/>
      <path d="m450.05566,275.37501h-13.34961l-2.76367,6.28027h-3.69629l11.37598-25.12012h3.55273l11.41211,25.12012h-3.76855l-2.7627-6.28027Zm-1.25684-2.87012l-5.41797-12.30957-5.41895,12.30957h10.83691Z" stroke-width="0"/>
      <path d="m481.2041,256.53517v25.12012h-2.94238l-15.07227-18.73242v18.73242h-3.58887v-25.12012h2.94336l15.07129,18.73242v-18.73242h3.58887Z" stroke-width="0"/>
    </g>
    <path d="m504.70801,258.69728c1.70117.97266,3.03906,2.30957,4.01172,4.01172.97168,1.70117,1.45801,3.58789,1.45801,5.66016,0,2.07129-.49707,3.96875-1.49023,5.69141s-2.34668,3.08105-4.05859,4.07422c-1.71191.99414-3.60449,1.49023-5.67578,1.49023-2.07227,0-3.95898-.49609-5.66016-1.49023-1.70215-.99316-3.04395-2.3457-4.02734-4.05859-.98242-1.71191-1.47363-3.59375-1.47363-5.64355,0-2.05078.49121-3.93262,1.47363-5.64453.9834-1.71289,2.33105-3.06543,4.04297-4.05859,1.71289-.99414,3.61523-1.49023,5.70801-1.49023s3.99023.48633,5.69141,1.45801Zm-.80859,18.20117c1.47949-.86621,2.64844-2.0498,3.50391-3.55176.85645-1.5,1.28418-3.15918,1.28418-4.97754s-.41699-3.4668-1.25195-4.94727c-.83594-1.47949-1.9873-2.6416-3.45703-3.4873-1.46875-.8457-3.12305-1.26855-4.96191-1.26855-1.81836,0-3.47266.43359-4.96289,1.2998-1.49023.86719-2.6582,2.04492-3.50391,3.53516-.8457,1.49121-1.26758,3.13477-1.26758,4.93164s.42188,3.44043,1.26758,4.93066,2.00879,2.66895,3.48828,3.53516c1.47949.86719,3.11816,1.2998,4.91504,1.2998,1.81738,0,3.4668-.43262,4.94629-1.2998Zm.0957-8.05371c-.46582.67676-1.12109,1.16211-1.96582,1.45801l2.88477,4.47168h-2.1875l-2.63184-4.05957h-3.45605v4.05957h-2.15625v-12.68359h5.07324c1.58496,0,2.83789.39062,3.75781,1.17285.91895.78223,1.37891,1.8291,1.37891,3.13867,0,.95215-.23242,1.76562-.69727,2.44238Zm-2.23535-.57129c.55957-.44336.83984-1.06738.83984-1.87109,0-.80273-.28027-1.4209-.83984-1.85449-.56055-.43262-1.34766-.65039-2.3623-.65039h-2.79102v5.04199h2.79102c1.01465,0,1.80176-.22168,2.3623-.66602Z" stroke-width="0"/>
  </g>
</svg>