<svg xmlns="http://www.w3.org/2000/svg" xmlns:xlink="http://www.w3.org/1999/xlink" width="500" zoomAndPan="magnify" viewBox="0 0 375 374.999991" height="500" preserveAspectRatio="xMidYMid meet" version="1.0"><defs><g/><clipPath id="0ad3f5878b"><path d="M 189.253906 131.777344 L 307.003906 131.777344 L 307.003906 227 L 189.253906 227 Z M 189.253906 131.777344 " clip-rule="nonzero"/></clipPath><clipPath id="81b3ee5ff2"><path d="M 67.984375 148 L 185.734375 148 L 185.734375 243.214844 L 67.984375 243.214844 Z M 67.984375 148 " clip-rule="nonzero"/></clipPath><clipPath id="767268e755"><path d="M 255.179688 131.777344 L 282.179688 131.777344 L 282.179688 146 L 255.179688 146 Z M 255.179688 131.777344 " clip-rule="nonzero"/></clipPath><clipPath id="601830bcae"><path d="M 90.644531 227.375 L 121.394531 227.375 L 121.394531 243.125 L 90.644531 243.125 Z M 90.644531 227.375 " clip-rule="nonzero"/></clipPath><clipPath id="6826c18194"><path d="M 157.523438 209 L 161 209 L 161 213 L 157.523438 213 Z M 157.523438 209 " clip-rule="nonzero"/></clipPath><clipPath id="770c33a0d4"><path d="M 179 203.53125 L 188 203.53125 L 188 213 L 179 213 Z M 179 203.53125 " clip-rule="nonzero"/></clipPath><clipPath id="2c20c8b677"><path d="M 157.523438 209 L 160 209 L 160 213 L 157.523438 213 Z M 157.523438 209 " clip-rule="nonzero"/></clipPath><clipPath id="4eacc56d86"><path d="M 179 203.53125 L 189 203.53125 L 189 214 L 179 214 Z M 179 203.53125 " clip-rule="nonzero"/></clipPath></defs><rect x="-37.5" width="450" fill="#ffffff" y="-37.499999" height="449.999989" fill-opacity="1"/><rect x="-37.5" width="450" fill="#ffffff" y="-37.499999" height="449.999989" fill-opacity="1"/><g clip-path="url(#0ad3f5878b)"><path fill="#000000" d="M 228.070312 226.875 C 214.113281 226.875 201.007812 225.230469 189.625 222.339844 C 197.460938 223.527344 205.839844 224.167969 214.550781 224.167969 C 258.214844 224.167969 293.617188 208.050781 293.617188 188.164062 C 293.617188 174.636719 277.230469 162.855469 252.996094 156.695312 C 284.449219 161.453125 307.132812 174.953125 307.132812 190.878906 C 307.132812 210.757812 271.734375 226.875 228.070312 226.875 Z M 229.535156 150.722656 L 229.535156 150.429688 C 246.96875 150.429688 248.230469 147.601562 248.230469 131.726562 L 248.523438 131.726562 C 248.523438 147.601562 249.796875 150.429688 267.226562 150.429688 L 267.226562 150.722656 C 249.796875 150.722656 248.523438 153.542969 248.523438 169.417969 L 248.230469 169.417969 C 248.230469 153.542969 246.96875 150.722656 229.535156 150.722656 " fill-opacity="1" fill-rule="evenodd"/></g><g clip-path="url(#81b3ee5ff2)"><path fill="#000000" d="M 146.921875 148.117188 C 160.875 148.117188 173.980469 149.761719 185.367188 152.65625 C 177.53125 151.464844 169.152344 150.824219 160.4375 150.824219 C 116.773438 150.824219 81.375 166.941406 81.375 186.828125 C 81.375 200.355469 97.761719 212.140625 121.992188 218.296875 C 90.542969 213.539062 67.859375 200.039062 67.859375 184.113281 C 67.859375 164.234375 103.257812 148.117188 146.921875 148.117188 Z M 145.453125 224.269531 L 145.453125 224.5625 C 128.023438 224.5625 126.757812 227.390625 126.757812 243.265625 L 126.464844 243.265625 C 126.464844 227.390625 125.195312 224.5625 107.761719 224.5625 L 107.761719 224.269531 C 125.195312 224.269531 126.464844 221.449219 126.464844 205.574219 L 126.757812 205.574219 C 126.757812 221.449219 128.023438 224.269531 145.453125 224.269531 " fill-opacity="1" fill-rule="evenodd"/></g><g clip-path="url(#767268e755)"><path fill="#000000" d="M 255.167969 138.792969 L 255.167969 138.6875 C 267.675781 138.6875 268.585938 137.644531 268.585938 131.792969 L 268.792969 131.792969 C 268.792969 137.644531 269.703125 138.6875 282.210938 138.6875 L 282.210938 138.792969 C 269.703125 138.792969 268.792969 139.835938 268.792969 145.6875 L 268.585938 145.6875 C 268.585938 139.835938 267.675781 138.792969 255.167969 138.792969 " fill-opacity="1" fill-rule="evenodd"/></g><g clip-path="url(#601830bcae)"><path fill="#000000" d="M 90.632812 235.367188 L 90.632812 235.246094 C 104.882812 235.246094 105.917969 234.058594 105.917969 227.390625 L 106.152344 227.390625 C 106.152344 234.058594 107.191406 235.246094 121.4375 235.246094 L 121.4375 235.367188 C 107.191406 235.367188 106.152344 236.554688 106.152344 243.21875 L 105.917969 243.21875 C 105.917969 236.554688 104.882812 235.367188 90.632812 235.367188 " fill-opacity="1" fill-rule="evenodd"/></g><path stroke-linecap="butt" transform="matrix(0.695303, -0.281165, 0.281165, 0.695303, 30.466369, 193.272703)" fill="none" stroke-linejoin="miter" d="M 3.946093 42.001812 C 3.40158 42.000727 2.935169 41.806503 2.544906 41.423967 C 2.158549 41.031775 1.969764 40.567789 1.966944 40.032933 L 1.966225 9.678297 C 1.967415 9.105737 2.156811 8.637373 2.543146 8.265501 C 2.936262 7.890753 3.400247 7.701969 3.94476 7.703054 L 26.670361 7.701637 C 28.182052 7.700563 29.533847 8.03933 30.720916 8.715986 C 31.90511 9.385861 32.832019 10.316869 33.503598 11.504183 C 34.1723 12.684716 34.506674 14.039047 34.507748 15.550738 L 34.506437 19.235651 C 34.509202 20.298581 34.162574 21.169663 33.481039 21.854753 C 32.796629 22.533061 31.92681 22.877965 30.865832 22.875902 L 30.611452 22.879779 C 30.066939 22.878695 29.609735 23.064603 29.231104 23.445209 C 28.86316 23.813281 28.678593 24.283598 28.677402 24.856158 C 28.67827 25.395842 28.864179 25.853047 29.230299 26.22582 C 29.608028 26.597669 30.066735 26.78316 30.6132 26.779416 L 30.989428 26.779866 C 32.022358 26.781824 32.866421 27.111908 33.523569 27.765289 C 34.178765 28.423499 34.507336 29.264241 34.505379 30.297171 L 34.506623 39.977581 C 34.505539 40.522094 34.323847 40.999192 33.951892 41.404969 C 33.583842 41.801089 33.111123 41.997578 32.53661 42.001216 L 25.379555 42.000362 C 24.835042 41.999278 24.366678 41.809882 23.978368 41.422518 C 23.596839 41.032278 23.401274 40.571168 23.400406 40.031484 L 23.404012 31.117091 C 23.400268 30.570625 23.219189 30.115373 22.846287 29.745476 C 22.477291 29.365922 22.006975 29.181355 21.434415 29.180165 L 15.008548 29.17723 C 14.464035 29.176146 14.004878 29.366883 13.6282 29.74266 C 13.258303 30.115561 13.074765 30.569439 13.07368 31.113952 L 13.073161 39.979031 C 13.072077 40.523544 12.885557 40.998689 12.51843 41.406418 C 12.145552 41.800586 11.677661 41.999027 11.105101 41.997837 Z M 15.008433 20.480437 L 21.4343 20.483371 C 22.008813 20.479733 22.475675 20.29773 22.8504 19.926781 C 23.217421 19.547099 23.402911 19.088392 23.403996 18.543879 C 23.401175 18.009024 23.220096 17.553771 22.847195 17.183875 C 22.476246 16.809149 22.007882 16.619753 21.435322 16.618563 L 15.007502 16.620457 C 14.46299 16.619373 14.003832 16.810109 13.627154 17.185886 C 13.25921 17.553959 13.070843 18.005885 13.071711 18.545569 C 13.070627 19.090082 13.256535 19.547287 13.625531 19.92684 C 14.003261 20.29869 14.46392 20.479352 15.008433 20.480437 Z M 15.008433 20.480437 " stroke="#ffffff" stroke-width="6.430695" stroke-opacity="1" stroke-miterlimit="4"/><path stroke-linecap="butt" transform="matrix(0.709155, -0.244129, 0.244129, 0.709155, 56.857028, 182.857138)" fill="none" stroke-linejoin="miter" d="M 3.947147 42.002327 C 3.401961 42.001928 2.934438 41.807931 2.542883 41.425263 C 2.159644 41.034441 1.966528 40.571361 1.970157 40.032795 L 1.969351 9.681699 C 1.968378 9.108499 2.159145 8.634356 2.544881 8.26589 C 2.934008 7.887575 3.400317 7.70108 3.945503 7.701479 L 11.105416 7.704087 C 11.678615 7.703113 12.147834 7.892185 12.51969 8.268072 C 12.888317 8.637339 13.073117 9.108572 13.07409 9.681772 L 13.074896 40.032869 C 13.071267 40.571435 12.890511 41.032499 12.519387 41.42252 C 12.149959 41.807616 11.67703 41.997341 11.10383 41.998314 Z M 3.947147 42.002327 " stroke="#ffffff" stroke-width="6.430695" stroke-opacity="1" stroke-miterlimit="4"/><path stroke-linecap="butt" transform="matrix(0.721036, -0.206415, 0.206415, 0.721036, 68.435969, 178.67634)" fill="none" stroke-linejoin="miter" d="M 3.94453 41.998459 C 3.40224 42.000324 2.93231 41.806201 2.54332 41.423966 C 2.162204 41.033149 1.96928 40.571603 1.965982 40.034321 L 1.968518 35.142998 C 1.968813 34.574239 2.157928 34.102876 2.545878 33.731774 C 2.935262 33.355665 3.401815 33.164175 3.947678 33.16875 L 21.435397 33.169234 C 22.005589 33.164521 22.480723 32.980905 22.847211 32.609077 C 23.217272 32.243689 23.402087 31.787347 23.401656 31.240051 C 23.399791 30.697762 23.218314 30.234076 22.847213 29.846126 C 22.476111 29.458176 22.006181 29.264053 21.432415 29.262325 L 11.356445 29.259962 C 9.556446 29.264752 7.944817 28.857557 6.530137 28.046253 C 5.121899 27.231375 4.009281 26.121898 3.195151 24.707806 C 2.376014 23.292281 1.970491 21.680946 1.967135 19.87594 L 1.967863 17.091527 C 1.966667 15.260052 2.373861 13.648422 3.189446 12.256638 C 4.009331 10.849833 5.122382 9.743656 6.531466 8.928092 C 7.946991 8.108955 9.55332 7.701999 11.356892 7.70365 L 32.540472 7.700326 C 33.114238 7.702055 33.580594 7.889737 33.954563 8.267672 C 34.31995 8.637734 34.505 9.10786 34.509712 9.678052 L 34.506489 14.515004 C 34.508354 15.057293 34.324246 15.53009 33.953458 15.916939 C 33.58267 16.303789 33.11111 16.493846 32.542351 16.493551 L 15.010273 16.496622 C 14.464411 16.492046 14.004298 16.679963 13.627796 17.048925 C 13.256301 17.419319 13.073627 17.887109 13.071898 18.460875 C 13.07233 19.008171 13.255239 19.46685 13.629208 19.844786 C 14.006043 20.212707 14.462385 20.397522 15.009682 20.39709 L 25.118562 20.39804 C 26.950037 20.396843 28.561667 20.804037 29.963465 21.622489 C 31.36813 22.430926 32.470733 23.537537 33.282723 24.940181 C 34.097579 26.33281 34.506676 27.950586 34.506439 29.787069 L 34.50571 32.571482 C 34.505493 34.370047 34.096866 35.986684 33.281261 37.416385 C 32.470664 38.847519 31.369767 39.968011 29.96569 40.785008 C 28.563046 41.596997 26.946704 42.001087 25.121669 41.998709 Z M 3.94453 41.998459 " stroke="#ffffff" stroke-width="6.430695" stroke-opacity="1" stroke-miterlimit="4"/><path stroke-linecap="butt" transform="matrix(0.73573, -0.145607, 0.145607, 0.73573, 96.284017, 170.63432)" fill="none" stroke-linejoin="miter" d="M 3.943358 42.000192 C 3.401992 41.999239 2.935827 41.806103 2.54385 41.425894 C 2.160016 41.031369 1.970119 40.569039 1.970062 40.032783 L 1.967204 9.678645 C 1.969115 9.105613 2.157142 8.638436 2.543524 8.268919 C 2.931929 7.889183 3.399368 7.700297 3.945843 7.702262 L 18.610658 7.700332 C 19.18369 7.702243 19.650867 7.890269 20.022407 8.266433 C 20.389848 8.636477 20.577723 9.109026 20.575812 9.682057 L 20.579458 13.017053 C 20.577494 13.563528 20.763292 14.019738 21.130734 14.389781 C 21.508394 14.761847 21.966363 14.942742 22.50262 14.942684 C 23.075651 14.944595 23.547189 14.76183 23.918244 14.389279 C 24.293396 14.022848 24.480412 13.560781 24.481365 13.019416 L 24.47873 9.679311 C 24.480641 9.106279 24.674788 8.635004 25.056061 8.264476 C 25.438345 7.888838 25.905785 7.699952 26.44715 7.700906 L 41.110955 7.704085 C 41.684998 7.700887 42.157284 7.889924 42.523714 8.265077 C 42.896265 8.636132 43.07903 9.107669 43.077119 9.680701 L 43.079977 40.034839 C 43.080035 40.571096 42.893019 41.033163 42.52404 41.422053 C 42.156073 41.805833 41.682513 41.998817 41.113579 42.003026 L 33.95225 41.998029 C 33.409874 42.002185 32.943708 41.809049 32.562961 41.425754 C 32.178116 41.036338 31.984121 40.567887 31.984064 40.031631 L 31.982675 20.05226 C 31.98464 19.505785 31.798841 19.049575 31.42017 18.682619 C 31.047619 18.311564 30.579431 18.128647 30.006399 18.126736 C 29.465034 18.125782 29.003714 18.31057 28.63878 18.679023 C 28.267726 19.051574 28.081722 19.508532 28.080768 20.049897 L 28.081145 40.034378 C 28.081203 40.570634 27.894188 41.032701 27.513979 41.424678 C 27.146012 41.808458 26.672452 42.001442 26.104529 42.000542 L 18.942189 42.000654 C 18.405933 42.000712 17.944877 41.808587 17.553911 41.42327 C 17.169066 41.033854 16.97406 40.570512 16.974002 40.034256 L 16.978734 20.050787 C 16.974579 19.50841 16.78878 19.0522 16.421338 18.682157 C 16.053896 18.312113 15.580599 18.128185 15.007567 18.126274 C 14.466202 18.12532 14.004883 18.310108 13.628719 18.681648 C 13.258676 19.049089 13.072672 19.506048 13.070707 20.052522 L 13.072095 40.031893 C 13.072153 40.568149 12.889236 41.036337 12.515148 41.424216 C 12.14718 41.807996 11.678729 42.001991 11.105697 42.00008 Z M 3.943358 42.000192 " stroke="#ffffff" stroke-width="6.430695" stroke-opacity="1" stroke-miterlimit="4"/><path stroke-linecap="butt" transform="matrix(0.744738, -0.0886883, 0.0886883, 0.744738, 130.936402, 164.055032)" fill="none" stroke-linejoin="miter" d="M 11.574288 42.001451 C 9.717606 42.000641 8.067814 41.583877 6.624294 40.756331 C 5.18139 39.923613 4.042896 38.780968 3.213368 37.334183 C 2.380516 35.871266 1.969667 34.212083 1.965921 32.349614 L 1.968101 17.312071 C 1.970143 15.445046 2.381735 13.794638 3.213837 12.356905 C 4.041383 10.913385 5.17824 9.779447 6.625026 8.949919 C 8.067255 8.114604 9.721267 7.703139 11.577948 7.703949 L 18.475548 7.701875 C 20.337401 7.703301 21.987809 8.114893 23.425542 8.946995 C 24.868446 9.779713 26.007556 10.917186 26.837699 12.3588 C 27.668459 13.795242 28.079924 15.449253 28.078498 17.311106 L 28.08149 32.349265 C 28.080064 34.211118 27.66724 35.87187 26.837846 37.330905 C 26.003897 38.784153 24.866423 39.923263 23.42481 40.753407 C 21.988368 41.584167 20.33374 42.000803 18.471887 41.999377 Z M 15.007481 33.168371 C 15.579213 33.16827 16.052318 32.983334 16.421624 32.612948 C 16.790931 32.242562 16.976272 31.787326 16.978263 31.242069 L 16.974199 18.459191 C 16.974098 17.887459 16.793718 17.420142 16.423332 17.050835 C 16.053562 16.676357 15.582195 16.49434 15.010463 16.494442 C 14.465206 16.49245 14.002445 16.678618 13.627966 17.048388 C 13.25866 17.418774 13.071471 17.889525 13.071572 18.461257 L 13.07108 31.238348 C 13.074261 31.78422 13.255873 32.241194 13.626259 32.610501 C 14.001817 32.980423 14.462224 33.16638 15.007481 33.168371 Z M 15.007481 33.168371 " stroke="#ffffff" stroke-width="6.430695" stroke-opacity="1" stroke-miterlimit="4"/><path stroke-linecap="butt" transform="matrix(0.749806, -0.0170408, 0.0170408, 0.749806, 165.293622, 160.427056)" fill="none" stroke-linejoin="miter" d="M 3.946907 41.999866 C 3.399936 41.997855 2.935331 41.810167 2.542913 41.426151 C 2.161146 41.031959 1.968487 40.569128 1.970262 40.032572 L 1.967176 9.680914 C 1.96978 9.107908 2.157586 8.638096 2.541128 8.266506 C 2.935202 7.889946 3.403121 7.702612 3.945003 7.699299 L 32.582497 7.704142 C 33.155621 7.701539 33.625433 7.889345 33.997141 8.26768 C 34.363879 8.635483 34.551094 9.108609 34.548491 9.681614 L 34.549321 15.375812 C 34.547428 15.917575 34.364828 16.387506 33.996552 16.775072 C 33.623069 17.162519 33.15515 17.349853 32.582026 17.352457 L 15.00974 17.354237 C 14.462769 17.352225 14.005383 17.534588 13.627048 17.906296 C 13.259127 18.278241 13.07132 18.748054 13.073924 19.321177 C 13.07203 19.862941 13.259482 20.325653 13.626102 20.698663 C 14.003135 21.071909 14.462652 21.254272 15.009623 21.256283 L 30.821 21.25616 C 31.394124 21.253557 31.87435 21.4416 32.256709 21.809758 C 32.649482 22.178152 32.841904 22.651396 32.844508 23.22452 L 32.845101 28.929132 C 32.843208 29.470895 32.650313 29.935383 32.25612 30.31715 C 31.872223 30.70436 31.409393 30.897019 30.867629 30.895126 L 15.009389 30.894184 C 14.4623 30.897379 14.004795 31.084949 13.626341 31.461864 C 13.258539 31.828602 13.071087 32.282794 13.074519 32.819468 L 13.073338 39.97754 C 13.071326 40.524511 12.888609 40.999649 12.519977 41.402835 C 12.146258 41.800697 11.678102 41.998444 11.104978 42.001048 Z M 3.946907 41.999866 " stroke="#ffffff" stroke-width="6.430695" stroke-opacity="1" stroke-miterlimit="4"/><path stroke-linecap="butt" transform="matrix(0.749662, 0.0225004, -0.0225004, 0.749662, 193.662179, 160.020942)" fill="none" stroke-linejoin="miter" d="M 3.946528 41.997587 C 3.39943 41.998375 2.935209 41.809092 2.543297 41.424843 C 2.16164 41.035076 1.965368 40.572006 1.969941 40.029958 L 1.965612 9.677881 C 1.969405 9.109803 2.158376 8.635171 2.543406 8.269288 C 2.933329 7.892837 3.401762 7.701615 3.943653 7.700982 L 11.103089 7.699737 C 11.676373 7.703373 12.1458 7.8925 12.516576 8.266962 C 12.887196 8.636218 13.073369 9.110013 13.074782 9.677934 L 13.073905 40.030167 C 13.074537 40.572059 12.885254 41.03628 12.516467 41.422517 C 12.14768 41.808755 11.679247 41.999978 11.10612 42.001547 Z M 3.946528 41.997587 " stroke="#ffffff" stroke-width="6.430695" stroke-opacity="1" stroke-miterlimit="4"/><path stroke-linecap="butt" transform="matrix(0.747771, 0.0577812, -0.0577812, 0.747771, 205.857941, 160.2673)" fill="none" stroke-linejoin="miter" d="M 11.877069 41.999233 C 10.586811 41.99968 9.940655 41.344388 9.943796 40.032956 L 9.943802 19.278562 C 9.943614 18.735295 9.751314 18.274783 9.367704 17.907412 C 8.983693 17.534848 8.504676 17.35246 7.935044 17.349462 L 3.902486 17.352855 C 3.301697 17.352264 2.828675 17.179861 2.47863 16.841239 C 2.13857 16.496622 1.966239 16.024119 1.966428 15.418137 L 1.970402 9.588003 C 1.965164 8.303338 2.615262 7.657584 3.905922 7.66233 L 27.097842 7.703835 C 27.69823 7.699233 28.16646 7.87723 28.512115 8.226639 C 28.851774 8.566063 29.024105 9.038566 29.023514 9.639355 L 29.020721 15.41716 C 29.020531 16.023142 28.853321 16.495762 28.509105 16.841016 C 28.169681 17.180675 27.697178 17.353006 27.096389 17.352415 L 23.02708 17.353425 C 22.483813 17.353613 22.012113 17.53633 21.622766 17.905966 C 21.238613 18.275201 21.049427 18.733847 21.049615 19.277114 L 21.04961 40.031508 C 21.046469 41.34294 20.407558 41.998277 19.122492 41.998322 Z M 11.877069 41.999233 " stroke="#ffffff" stroke-width="6.430695" stroke-opacity="1" stroke-miterlimit="4"/><path stroke-linecap="butt" transform="matrix(0.741218, 0.114439, -0.114439, 0.741218, 230.520093, 162.05265)" fill="none" stroke-linejoin="miter" d="M 3.943911 42.002141 C 3.401019 42.001639 2.934054 41.810233 2.54222 41.422775 C 2.160682 41.033729 1.96759 40.568156 1.968886 40.030412 L 1.968123 9.680347 C 1.969004 9.105777 2.16041 8.638811 2.545899 8.268362 C 2.935741 7.891971 3.402107 7.704026 3.945 7.704528 L 24.397882 7.703506 C 24.96651 7.700034 25.438623 7.890646 25.807483 8.26584 C 26.180695 8.635092 26.364288 9.107401 26.363406 9.681972 L 26.363451 29.787182 C 26.367301 30.324132 26.548509 30.780999 26.917369 31.156193 C 27.295729 31.524651 27.751605 31.712499 28.28935 31.713796 C 28.863126 31.709529 29.335435 31.525937 29.705482 31.157872 C 30.079086 30.778718 30.266935 30.322842 30.268231 29.785097 L 30.268187 9.679887 C 30.269068 9.105316 30.460474 8.638351 30.845963 8.267901 C 31.230657 7.892305 31.691082 7.700007 32.233974 7.700509 L 39.396107 7.701437 C 39.96553 7.703112 40.436848 7.888577 40.806503 8.268918 C 41.184863 8.637376 41.373602 9.10889 41.371926 9.678313 L 41.373484 40.033525 C 41.372188 40.57127 41.185134 41.032293 40.807971 41.422537 C 40.440309 41.806044 39.969589 41.999931 39.395018 41.99905 L 18.942136 42.000072 C 18.404392 41.998775 17.942574 41.806574 17.551535 41.424264 C 17.169996 41.035217 16.976904 40.569645 16.978201 40.0319 L 16.97664 20.053405 C 16.976347 19.505366 16.789992 19.049294 16.421927 18.679247 C 16.053862 18.3092 15.582544 18.123736 15.008768 18.128002 C 14.465876 18.1275 14.003862 18.309503 13.628667 18.678363 C 13.259415 19.051575 13.071567 19.507451 13.071065 20.050343 L 13.07342 40.033986 C 13.072124 40.57173 12.88507 41.032754 12.518997 41.426555 C 12.146187 41.810857 11.674673 41.999597 11.105249 41.997921 Z M 3.943911 42.002141 " stroke="#ffffff" stroke-width="6.430695" stroke-opacity="1" stroke-miterlimit="4"/><path stroke-linecap="butt" transform="matrix(0.729402, 0.174565, -0.174565, 0.729402, 264.180309, 167.420322)" fill="none" stroke-linejoin="miter" d="M 3.945105 41.997683 C 3.399351 41.999766 2.935159 41.8056 2.543612 41.422675 C 2.160984 41.032261 1.96984 40.569242 1.970182 40.033619 L 1.967656 9.67973 C 1.969642 9.106226 2.15753 8.638181 2.545304 8.266895 C 2.931865 7.890544 3.401162 7.703254 3.946915 7.701171 L 32.582714 7.702816 C 33.155006 7.699737 33.624263 7.892691 33.991912 8.265269 C 34.364626 8.636634 34.546852 9.107143 34.549931 9.679435 L 34.549544 14.73504 C 34.551627 15.280794 34.362526 15.743773 33.993585 16.126618 C 33.624644 16.509463 33.151495 16.703031 32.584267 16.704897 L 15.007149 16.702199 C 14.466461 16.70307 14.00223 16.889148 13.627011 17.26814 C 13.255645 17.640855 13.072823 18.107687 13.070836 18.681191 C 13.072919 19.226945 13.256573 19.681046 13.629287 20.052411 C 14.002002 20.423777 14.463769 20.607812 15.009522 20.605729 L 30.867338 20.607533 C 31.434566 20.605667 31.908888 20.797408 32.276537 21.169986 C 32.654316 21.540139 32.842819 22.014501 32.845898 22.586793 L 32.841003 27.086513 C 32.840662 27.622137 32.656627 28.083903 32.27998 28.479303 C 31.911039 28.862148 31.436677 29.050651 30.864384 29.05373 L 15.006568 29.051926 C 14.46588 29.052796 14.004073 29.249005 13.626214 29.63934 C 13.257273 30.022185 13.073238 30.483952 13.072896 31.019575 C 13.074979 31.565329 13.25478 32.025707 13.628707 32.402138 C 14.006486 32.772291 14.463188 32.957538 15.008942 32.955455 L 32.580994 32.959366 C 33.153287 32.956287 33.626397 33.142963 33.992833 33.510475 C 34.365548 33.881841 34.547773 34.352349 34.550852 34.924642 L 34.547392 40.034536 C 34.54705 40.570159 34.363015 41.031926 33.996498 41.424901 C 33.622492 41.808959 33.154408 42.001315 32.580903 41.999328 Z M 3.945105 41.997683 " stroke="#ffffff" stroke-width="6.430695" stroke-opacity="1" stroke-miterlimit="4"/><path stroke-linecap="butt" transform="matrix(0.714339, 0.228517, -0.228517, 0.714339, 292.215014, 174.1862)" fill="none" stroke-linejoin="miter" d="M 3.947699 41.999026 C 3.400849 41.998977 2.935369 41.808847 2.544711 41.425262 C 2.157427 41.03513 1.970357 40.570013 1.96862 40.034671 L 1.968663 35.145956 C 1.965739 34.572716 2.159242 34.100688 2.544214 33.73146 C 2.932559 33.355684 3.402637 33.167027 3.944527 33.168664 L 21.437187 33.166867 C 22.005467 33.165529 22.477132 32.981833 22.845635 32.612405 C 23.219098 32.24139 23.400893 31.784044 23.402529 31.242155 C 23.402579 30.695304 23.217096 30.235148 22.847868 29.850176 C 22.477053 29.460244 22.008399 29.260193 21.435158 29.263118 L 11.356327 29.261019 C 9.557634 29.262246 7.946684 28.858908 6.533399 28.047831 C 5.123488 27.230206 4.008657 26.121325 3.190691 24.709679 C 2.376099 23.291486 1.965709 21.683836 1.966269 19.873635 L 1.967116 17.089976 C 1.967875 15.263306 2.376174 13.65077 3.192012 12.252367 C 4.00785 10.853964 5.123278 9.742506 6.529963 8.926127 C 7.948157 8.111536 9.555807 7.701146 11.3545 7.699919 L 32.539987 7.703415 C 33.113227 7.700491 33.583668 7.889034 33.951309 8.269045 C 34.320737 8.637547 34.509394 9.107625 34.507358 9.682453 L 34.506327 14.516799 C 34.504691 15.058689 34.321109 15.527543 33.953993 15.918401 C 33.583704 16.299337 33.110252 16.494541 32.540385 16.490918 L 15.009826 16.493902 C 14.462976 16.493853 14.002819 16.679336 13.627769 17.04539 C 13.254306 17.416405 13.07231 17.89022 13.073648 18.4585 C 13.073599 19.00535 13.259082 19.465507 13.626723 19.845517 C 14.006072 20.210846 14.465005 20.397602 15.006895 20.399238 L 25.117077 20.396776 C 26.948708 20.395949 28.561244 20.804248 29.966195 21.623459 C 31.367971 22.43275 32.476255 23.538257 33.286086 24.941568 C 34.097704 26.333371 34.506307 27.952529 34.507134 29.78416 L 34.506288 32.567819 C 34.509102 34.371472 34.100803 35.984009 33.284566 37.41535 C 32.473289 38.845104 31.367582 39.969857 29.965857 40.784648 C 28.562546 41.594479 26.948348 42.001495 25.121678 42.000735 Z M 3.947699 41.999026 " stroke="#ffffff" stroke-width="6.430695" stroke-opacity="1" stroke-miterlimit="4"/><path stroke-linecap="butt" transform="matrix(0.695303, 0.281165, -0.281165, 0.695303, 319.635334, 183.014592)" fill="none" stroke-linejoin="miter" d="M 3.946956 42.001525 C 3.400491 41.997781 2.936505 41.808996 2.544312 41.422639 C 2.161777 41.032376 1.969505 40.570794 1.965545 40.033062 L 1.96647 35.144981 C 1.96528 34.572421 2.15694 34.101654 2.541451 33.73268 C 2.933666 33.354973 3.40203 33.165577 3.946542 33.164493 L 21.435882 33.165329 C 22.008442 33.164139 22.478759 32.979572 22.846831 32.611627 C 23.219733 32.24173 23.400812 31.786478 23.404556 31.240013 C 23.403472 30.6955 23.216029 30.231965 22.847055 29.847454 C 22.476129 29.458115 22.008238 29.259674 21.435678 29.260864 L 11.357774 29.263052 C 9.553998 29.262111 7.945999 28.856155 6.528948 28.047137 C 5.121554 27.234214 4.007035 26.117464 3.191248 24.711371 C 2.376385 23.293668 1.96701 21.683905 1.965998 19.875301 L 1.968068 17.087909 C 1.966028 15.262867 2.374859 13.648087 3.19364 12.255178 C 4.008515 10.852612 5.12239 9.744874 6.533312 8.927135 C 7.949061 8.107444 9.553996 7.700021 11.357772 7.700962 L 32.538806 7.703362 C 33.111366 7.702172 33.58018 7.889004 33.95203 8.266733 C 34.321927 8.639634 34.506494 9.109951 34.507684 9.682511 L 34.506547 14.514497 C 34.507632 15.05901 34.3208 15.527824 33.950881 15.918988 C 33.583837 16.30337 33.110645 16.494718 32.538085 16.495908 L 15.009088 16.494255 C 14.464575 16.495339 14.003915 16.676001 13.626186 17.047851 C 13.258113 17.415795 13.073234 17.889438 13.074424 18.461998 C 13.075509 19.006511 13.256171 19.46717 13.62802 19.8449 C 14.002746 20.215848 14.464779 20.399804 15.009292 20.398719 L 25.120072 20.394474 C 26.947067 20.397261 28.561847 20.806093 29.964412 21.620968 C 31.365025 22.431015 32.47564 23.538109 33.284645 24.941326 C 34.101355 26.33581 34.507855 27.952354 34.507019 29.784177 L 34.509777 32.569616 C 34.506884 34.368564 34.098052 35.983344 33.283283 37.413957 C 32.475294 38.847446 31.367277 39.969669 29.966012 40.783504 C 28.562795 41.592509 26.946251 41.999009 25.121209 42.001049 Z M 3.946956 42.001525 " stroke="#ffffff" stroke-width="6.430695" stroke-opacity="1" stroke-miterlimit="4"/><g fill="#000000" fill-opacity="1"><g transform="translate(42.275292, 222.47543)"><g><path d="M 2.734375 -1.109375 C 2.359375 -0.953125 1.984375 -0.957031 1.609375 -1.125 C 1.234375 -1.289062 0.96875 -1.5625 0.8125 -1.9375 L -7.71875 -23.046875 C -7.875 -23.441406 -7.867188 -23.816406 -7.703125 -24.171875 C -7.546875 -24.535156 -7.28125 -24.796875 -6.90625 -24.953125 L 8.90625 -31.34375 C 9.957031 -31.769531 10.988281 -31.914062 12 -31.78125 C 13.007812 -31.65625 13.914062 -31.269531 14.71875 -30.625 C 15.519531 -29.988281 16.132812 -29.144531 16.5625 -28.09375 L 17.59375 -25.53125 C 17.894531 -24.800781 17.898438 -24.097656 17.609375 -23.421875 C 17.328125 -22.753906 16.820312 -22.273438 16.09375 -21.984375 L 15.90625 -21.90625 C 15.53125 -21.75 15.265625 -21.488281 15.109375 -21.125 C 14.960938 -20.757812 14.96875 -20.378906 15.125 -19.984375 C 15.28125 -19.609375 15.535156 -19.34375 15.890625 -19.1875 C 16.253906 -19.039062 16.625 -19.046875 17 -19.203125 L 17.265625 -19.3125 C 17.984375 -19.601562 18.664062 -19.609375 19.3125 -19.328125 C 19.957031 -19.054688 20.421875 -18.5625 20.703125 -17.84375 L 23.4375 -11.109375 C 23.582031 -10.734375 23.582031 -10.351562 23.4375 -9.96875 C 23.289062 -9.582031 23.019531 -9.3125 22.625 -9.15625 L 17.640625 -7.140625 C 17.265625 -6.984375 16.890625 -6.984375 16.515625 -7.140625 C 16.140625 -7.304688 15.875 -7.578125 15.71875 -7.953125 L 13.21875 -14.15625 C 13.0625 -14.53125 12.800781 -14.789062 12.4375 -14.9375 C 12.070312 -15.09375 11.691406 -15.09375 11.296875 -14.9375 L 6.8125 -13.125 C 6.4375 -12.96875 6.171875 -12.707031 6.015625 -12.34375 C 5.867188 -11.988281 5.875 -11.625 6.03125 -11.25 L 8.53125 -5.078125 C 8.675781 -4.703125 8.675781 -4.320312 8.53125 -3.9375 C 8.382812 -3.550781 8.113281 -3.28125 7.71875 -3.125 Z M 4.375 -19.1875 L 8.859375 -21 C 9.253906 -21.15625 9.53125 -21.414062 9.6875 -21.78125 C 9.84375 -22.144531 9.84375 -22.515625 9.6875 -22.890625 C 9.53125 -23.265625 9.269531 -23.523438 8.90625 -23.671875 C 8.539062 -23.828125 8.160156 -23.828125 7.765625 -23.671875 L 3.28125 -21.859375 C 2.90625 -21.703125 2.640625 -21.441406 2.484375 -21.078125 C 2.335938 -20.722656 2.34375 -20.359375 2.5 -19.984375 C 2.65625 -19.609375 2.910156 -19.34375 3.265625 -19.1875 C 3.628906 -19.03125 4 -19.03125 4.375 -19.1875 Z M 4.375 -19.1875 "/></g></g></g><g fill="#000000" fill-opacity="1"><g transform="translate(67.110449, 212.641651)"><g><path d="M 2.796875 -0.96875 C 2.410156 -0.832031 2.035156 -0.851562 1.671875 -1.03125 C 1.304688 -1.21875 1.054688 -1.503906 0.921875 -1.890625 L -6.484375 -23.40625 C -6.628906 -23.8125 -6.609375 -24.191406 -6.421875 -24.546875 C -6.242188 -24.898438 -5.960938 -25.144531 -5.578125 -25.28125 L -0.5 -27.015625 C -0.09375 -27.160156 0.285156 -27.144531 0.640625 -26.96875 C 0.992188 -26.800781 1.242188 -26.515625 1.390625 -26.109375 L 8.796875 -4.59375 C 8.929688 -4.207031 8.910156 -3.832031 8.734375 -3.46875 C 8.566406 -3.101562 8.28125 -2.847656 7.875 -2.703125 Z M 2.796875 -0.96875 "/></g></g></g><g fill="#000000" fill-opacity="1"><g transform="translate(77.105389, 208.959852)"><g><path d="M 2.84375 -0.8125 C 2.445312 -0.695312 2.070312 -0.738281 1.71875 -0.9375 C 1.363281 -1.144531 1.128906 -1.441406 1.015625 -1.828125 L 0 -5.34375 C -0.113281 -5.757812 -0.0703125 -6.140625 0.125 -6.484375 C 0.320312 -6.835938 0.617188 -7.070312 1.015625 -7.1875 L 13.625 -10.796875 C 14.039062 -10.910156 14.347656 -11.140625 14.546875 -11.484375 C 14.742188 -11.828125 14.785156 -12.195312 14.671875 -12.59375 C 14.554688 -12.988281 14.320312 -13.28125 13.96875 -13.46875 C 13.625 -13.664062 13.242188 -13.707031 12.828125 -13.59375 L 5.5625 -11.515625 C 4.269531 -11.140625 3.023438 -11.101562 1.828125 -11.40625 C 0.640625 -11.707031 -0.390625 -12.28125 -1.265625 -13.125 C -2.140625 -13.976562 -2.765625 -15.054688 -3.140625 -16.359375 L -3.71875 -18.375 C -4.09375 -19.6875 -4.128906 -20.929688 -3.828125 -22.109375 C -3.535156 -23.285156 -2.960938 -24.3125 -2.109375 -25.1875 C -1.253906 -26.0625 -0.179688 -26.6875 1.109375 -27.0625 L 16.390625 -31.4375 C 16.796875 -31.550781 17.171875 -31.515625 17.515625 -31.328125 C 17.867188 -31.140625 18.101562 -30.84375 18.21875 -30.4375 L 19.21875 -26.9375 C 19.332031 -26.550781 19.289062 -26.179688 19.09375 -25.828125 C 18.90625 -25.472656 18.609375 -25.238281 18.203125 -25.125 L 5.546875 -21.5 C 5.160156 -21.382812 4.875 -21.15625 4.6875 -20.8125 C 4.5 -20.46875 4.460938 -20.085938 4.578125 -19.671875 C 4.691406 -19.285156 4.921875 -18.992188 5.265625 -18.796875 C 5.609375 -18.597656 5.972656 -18.554688 6.359375 -18.671875 L 13.65625 -20.765625 C 14.976562 -21.140625 16.226562 -21.175781 17.40625 -20.875 C 18.582031 -20.582031 19.609375 -20.015625 20.484375 -19.171875 C 21.359375 -18.328125 21.984375 -17.25 22.359375 -15.9375 L 22.9375 -13.9375 C 23.3125 -12.632812 23.351562 -11.378906 23.0625 -10.171875 C 22.769531 -8.972656 22.203125 -7.9375 21.359375 -7.0625 C 20.515625 -6.1875 19.429688 -5.5625 18.109375 -5.1875 Z M 2.84375 -0.8125 "/></g></g></g><g fill="#000000" fill-opacity="1"><g transform="translate(102.399507, 201.534976)"><g><path d="M 2.890625 -0.578125 C 2.492188 -0.492188 2.125 -0.566406 1.78125 -0.796875 C 1.445312 -1.023438 1.242188 -1.335938 1.171875 -1.734375 L -3.25 -24.0625 C -3.332031 -24.488281 -3.257812 -24.863281 -3.03125 -25.1875 C -2.8125 -25.519531 -2.503906 -25.726562 -2.109375 -25.8125 L 8.6875 -27.9375 C 9.101562 -28.019531 9.476562 -27.953125 9.8125 -27.734375 C 10.144531 -27.523438 10.351562 -27.207031 10.4375 -26.78125 L 10.921875 -24.328125 C 11.003906 -23.921875 11.207031 -23.609375 11.53125 -23.390625 C 11.851562 -23.171875 12.210938 -23.101562 12.609375 -23.1875 C 13.046875 -23.269531 13.375 -23.472656 13.59375 -23.796875 C 13.8125 -24.117188 13.878906 -24.484375 13.796875 -24.890625 L 13.3125 -27.34375 C 13.226562 -27.769531 13.300781 -28.144531 13.53125 -28.46875 C 13.757812 -28.800781 14.070312 -29.007812 14.46875 -29.09375 L 25.25 -31.21875 C 25.675781 -31.300781 26.050781 -31.234375 26.375 -31.015625 C 26.707031 -30.796875 26.914062 -30.472656 27 -30.046875 L 31.421875 -7.71875 C 31.492188 -7.320312 31.421875 -6.953125 31.203125 -6.609375 C 30.992188 -6.273438 30.675781 -6.066406 30.25 -5.984375 L 24.984375 -4.9375 C 24.585938 -4.863281 24.21875 -4.941406 23.875 -5.171875 C 23.53125 -5.398438 23.320312 -5.710938 23.25 -6.109375 L 20.328125 -20.8125 C 20.253906 -21.207031 20.054688 -21.515625 19.734375 -21.734375 C 19.410156 -21.953125 19.039062 -22.019531 18.625 -21.9375 C 18.207031 -21.851562 17.890625 -21.648438 17.671875 -21.328125 C 17.453125 -21.003906 17.378906 -20.644531 17.453125 -20.25 L 20.375 -5.546875 C 20.445312 -5.148438 20.375 -4.78125 20.15625 -4.4375 C 19.9375 -4.09375 19.617188 -3.878906 19.203125 -3.796875 L 13.953125 -2.765625 C 13.546875 -2.679688 13.171875 -2.753906 12.828125 -2.984375 C 12.484375 -3.210938 12.273438 -3.523438 12.203125 -3.921875 L 9.28125 -18.625 C 9.207031 -19.019531 9.007812 -19.328125 8.6875 -19.546875 C 8.363281 -19.765625 7.988281 -19.832031 7.5625 -19.75 C 7.164062 -19.664062 6.859375 -19.460938 6.640625 -19.140625 C 6.421875 -18.816406 6.347656 -18.457031 6.421875 -18.0625 L 9.34375 -3.359375 C 9.414062 -2.960938 9.34375 -2.59375 9.125 -2.25 C 8.90625 -1.90625 8.585938 -1.691406 8.171875 -1.609375 Z M 2.890625 -0.578125 "/></g></g></g><g fill="#000000" fill-opacity="1"><g transform="translate(134.661312, 195.334017)"><g><path d="M 8.625 -1.03125 C 7.238281 -0.863281 5.96875 -1.019531 4.8125 -1.5 C 3.664062 -1.988281 2.71875 -2.738281 1.96875 -3.75 C 1.226562 -4.769531 0.773438 -5.972656 0.609375 -7.359375 L -0.71875 -18.5625 C -0.882812 -19.945312 -0.722656 -21.210938 -0.234375 -22.359375 C 0.242188 -23.503906 0.984375 -24.445312 1.984375 -25.1875 C 2.992188 -25.9375 4.191406 -26.394531 5.578125 -26.5625 L 10.71875 -27.171875 C 12.101562 -27.335938 13.367188 -27.175781 14.515625 -26.6875 C 15.660156 -26.195312 16.609375 -25.453125 17.359375 -24.453125 C 18.109375 -23.453125 18.566406 -22.257812 18.734375 -20.875 L 20.0625 -9.671875 C 20.226562 -8.285156 20.066406 -7.007812 19.578125 -5.84375 C 19.085938 -4.6875 18.34375 -3.738281 17.34375 -3 C 16.34375 -2.257812 15.148438 -1.804688 13.765625 -1.640625 Z M 10.390625 -7.90625 C 10.816406 -7.957031 11.148438 -8.132812 11.390625 -8.4375 C 11.640625 -8.75 11.738281 -9.109375 11.6875 -9.515625 L 10.546875 -19.03125 C 10.503906 -19.457031 10.328125 -19.789062 10.015625 -20.03125 C 9.703125 -20.28125 9.332031 -20.378906 8.90625 -20.328125 C 8.5 -20.285156 8.175781 -20.109375 7.9375 -19.796875 C 7.707031 -19.484375 7.613281 -19.113281 7.65625 -18.6875 L 8.796875 -9.171875 C 8.847656 -8.765625 9.023438 -8.441406 9.328125 -8.203125 C 9.628906 -7.960938 9.984375 -7.863281 10.390625 -7.90625 Z M 10.390625 -7.90625 "/></g></g></g><g fill="#000000" fill-opacity="1"><g transform="translate(156.510255, 192.858871)"><g/></g></g><g fill="#000000" fill-opacity="1"><g transform="translate(166.009337, 191.918921)"><g><path d="M 2.953125 -0.0625 C 2.546875 -0.0507812 2.195312 -0.1875 1.90625 -0.46875 C 1.613281 -0.757812 1.460938 -1.109375 1.453125 -1.515625 L 0.9375 -24.28125 C 0.925781 -24.707031 1.0625 -25.0625 1.34375 -25.34375 C 1.625 -25.625 1.96875 -25.769531 2.375 -25.78125 L 23.859375 -26.28125 C 24.285156 -26.28125 24.640625 -26.144531 24.921875 -25.875 C 25.210938 -25.613281 25.363281 -25.269531 25.375 -24.84375 L 25.46875 -20.5625 C 25.476562 -20.15625 25.34375 -19.800781 25.0625 -19.5 C 24.789062 -19.195312 24.441406 -19.046875 24.015625 -19.046875 L 10.828125 -18.734375 C 10.421875 -18.722656 10.082031 -18.578125 9.8125 -18.296875 C 9.539062 -18.015625 9.410156 -17.660156 9.421875 -17.234375 C 9.429688 -16.828125 9.578125 -16.484375 9.859375 -16.203125 C 10.140625 -15.929688 10.484375 -15.800781 10.890625 -15.8125 L 22.765625 -16.09375 C 23.191406 -16.101562 23.550781 -15.972656 23.84375 -15.703125 C 24.144531 -15.429688 24.300781 -15.078125 24.3125 -14.640625 L 24.40625 -10.375 C 24.414062 -9.96875 24.28125 -9.613281 24 -9.3125 C 23.71875 -9.019531 23.375 -8.867188 22.96875 -8.859375 L 11.0625 -8.578125 C 10.65625 -8.566406 10.316406 -8.421875 10.046875 -8.140625 C 9.773438 -7.859375 9.644531 -7.507812 9.65625 -7.09375 L 9.78125 -1.734375 C 9.789062 -1.328125 9.65625 -0.96875 9.375 -0.65625 C 9.101562 -0.351562 8.753906 -0.195312 8.328125 -0.1875 Z M 2.953125 -0.0625 "/></g></g></g><g fill="#000000" fill-opacity="1"><g transform="translate(192.717164, 191.506761)"><g><path d="M 2.953125 0.09375 C 2.546875 0.0703125 2.203125 -0.0820312 1.921875 -0.375 C 1.648438 -0.675781 1.519531 -1.03125 1.53125 -1.4375 L 2.21875 -24.1875 C 2.226562 -24.613281 2.378906 -24.960938 2.671875 -25.234375 C 2.960938 -25.503906 3.3125 -25.628906 3.71875 -25.609375 L 9.09375 -25.453125 C 9.519531 -25.441406 9.867188 -25.289062 10.140625 -25 C 10.421875 -24.71875 10.554688 -24.363281 10.546875 -23.9375 L 9.859375 -1.1875 C 9.847656 -0.78125 9.695312 -0.4375 9.40625 -0.15625 C 9.113281 0.125 8.753906 0.257812 8.328125 0.25 Z M 2.953125 0.09375 "/></g></g></g><g fill="#000000" fill-opacity="1"><g transform="translate(203.431129, 191.673677)"><g><path d="M 8.875 0.6875 C 7.914062 0.613281 7.472656 0.0820312 7.546875 -0.90625 L 8.75 -16.421875 C 8.78125 -16.828125 8.660156 -17.175781 8.390625 -17.46875 C 8.128906 -17.757812 7.785156 -17.925781 7.359375 -17.96875 L 4.328125 -18.203125 C 3.890625 -18.234375 3.550781 -18.390625 3.3125 -18.671875 C 3.082031 -18.953125 2.984375 -19.316406 3.015625 -19.765625 L 3.359375 -24.125 C 3.429688 -25.082031 3.941406 -25.523438 4.890625 -25.453125 L 22.25 -24.078125 C 22.695312 -24.035156 23.035156 -23.878906 23.265625 -23.609375 C 23.503906 -23.335938 23.609375 -22.976562 23.578125 -22.53125 L 23.234375 -18.203125 C 23.203125 -17.753906 23.046875 -17.40625 22.765625 -17.15625 C 22.492188 -16.914062 22.132812 -16.816406 21.6875 -16.859375 L 18.640625 -17.09375 C 18.234375 -17.125 17.875 -17.015625 17.5625 -16.765625 C 17.25 -16.515625 17.078125 -16.1875 17.046875 -15.78125 L 15.84375 -0.265625 C 15.769531 0.722656 15.253906 1.179688 14.296875 1.109375 Z M 8.875 0.6875 "/></g></g></g><g fill="#000000" fill-opacity="1"><g transform="translate(225.713667, 193.183796)"><g><path d="M 2.921875 0.453125 C 2.515625 0.390625 2.191406 0.191406 1.953125 -0.140625 C 1.722656 -0.472656 1.632812 -0.84375 1.6875 -1.25 L 5.171875 -23.75 C 5.234375 -24.164062 5.425781 -24.488281 5.75 -24.71875 C 6.070312 -24.945312 6.4375 -25.03125 6.84375 -24.96875 L 22 -22.625 C 22.425781 -22.5625 22.753906 -22.367188 22.984375 -22.046875 C 23.222656 -21.734375 23.3125 -21.367188 23.25 -20.953125 L 20.953125 -6.046875 C 20.878906 -5.640625 20.957031 -5.273438 21.1875 -4.953125 C 21.425781 -4.640625 21.742188 -4.453125 22.140625 -4.390625 C 22.566406 -4.328125 22.9375 -4.410156 23.25 -4.640625 C 23.570312 -4.867188 23.769531 -5.1875 23.84375 -5.59375 L 26.140625 -20.5 C 26.203125 -20.914062 26.394531 -21.238281 26.71875 -21.46875 C 27.050781 -21.707031 27.421875 -21.796875 27.828125 -21.734375 L 33.125 -20.90625 C 33.539062 -20.84375 33.867188 -20.648438 34.109375 -20.328125 C 34.347656 -20.015625 34.4375 -19.648438 34.375 -19.234375 L 30.890625 3.265625 C 30.835938 3.671875 30.644531 3.992188 30.3125 4.234375 C 29.988281 4.484375 29.617188 4.578125 29.203125 4.515625 L 14.046875 2.171875 C 13.648438 2.109375 13.328125 1.910156 13.078125 1.578125 C 12.835938 1.242188 12.742188 0.875 12.796875 0.46875 L 15.09375 -14.34375 C 15.15625 -14.738281 15.066406 -15.09375 14.828125 -15.40625 C 14.597656 -15.726562 14.273438 -15.921875 13.859375 -15.984375 C 13.453125 -16.046875 13.09375 -15.957031 12.78125 -15.71875 C 12.46875 -15.488281 12.28125 -15.175781 12.21875 -14.78125 L 9.921875 0.03125 C 9.867188 0.4375 9.675781 0.757812 9.34375 1 C 9.019531 1.25 8.648438 1.335938 8.234375 1.265625 Z M 2.921875 0.453125 "/></g></g></g><g fill="#000000" fill-opacity="1"><g transform="translate(256.848591, 198.055202)"><g><path d="M 2.875 0.6875 C 2.476562 0.59375 2.171875 0.367188 1.953125 0.015625 C 1.742188 -0.328125 1.6875 -0.695312 1.78125 -1.09375 L 7.078125 -23.234375 C 7.179688 -23.648438 7.40625 -23.957031 7.75 -24.15625 C 8.09375 -24.363281 8.460938 -24.421875 8.859375 -24.328125 L 29.75 -19.328125 C 30.164062 -19.222656 30.476562 -19.003906 30.6875 -18.671875 C 30.894531 -18.335938 30.945312 -17.960938 30.84375 -17.546875 L 29.96875 -13.859375 C 29.875 -13.460938 29.65625 -13.15625 29.3125 -12.9375 C 28.976562 -12.71875 28.601562 -12.660156 28.1875 -12.765625 L 15.359375 -15.828125 C 14.960938 -15.929688 14.597656 -15.878906 14.265625 -15.671875 C 13.929688 -15.460938 13.71875 -15.148438 13.625 -14.734375 C 13.519531 -14.328125 13.566406 -13.957031 13.765625 -13.625 C 13.972656 -13.300781 14.273438 -13.085938 14.671875 -12.984375 L 26.25 -10.21875 C 26.664062 -10.125 26.972656 -9.90625 27.171875 -9.5625 C 27.378906 -9.21875 27.4375 -8.835938 27.34375 -8.421875 L 26.5625 -5.140625 C 26.46875 -4.742188 26.25 -4.441406 25.90625 -4.234375 C 25.570312 -4.023438 25.195312 -3.96875 24.78125 -4.0625 L 13.203125 -6.828125 C 12.804688 -6.929688 12.441406 -6.867188 12.109375 -6.640625 C 11.773438 -6.421875 11.5625 -6.117188 11.46875 -5.734375 C 11.375 -5.335938 11.425781 -4.96875 11.625 -4.625 C 11.820312 -4.289062 12.117188 -4.070312 12.515625 -3.96875 L 25.34375 -0.90625 C 25.757812 -0.800781 26.070312 -0.582031 26.28125 -0.25 C 26.488281 0.0703125 26.539062 0.441406 26.4375 0.859375 L 25.546875 4.59375 C 25.453125 4.988281 25.234375 5.296875 24.890625 5.515625 C 24.554688 5.734375 24.179688 5.789062 23.765625 5.6875 Z M 2.875 0.6875 "/></g></g></g><g fill="#000000" fill-opacity="1"><g transform="translate(282.617283, 204.188422)"><g><path d="M 2.8125 0.90625 C 2.425781 0.78125 2.140625 0.535156 1.953125 0.171875 C 1.765625 -0.191406 1.734375 -0.566406 1.859375 -0.953125 L 2.96875 -4.4375 C 3.101562 -4.84375 3.347656 -5.132812 3.703125 -5.3125 C 4.066406 -5.5 4.441406 -5.53125 4.828125 -5.40625 L 17.328125 -1.40625 C 17.734375 -1.28125 18.113281 -1.304688 18.46875 -1.484375 C 18.820312 -1.660156 19.066406 -1.945312 19.203125 -2.34375 C 19.316406 -2.738281 19.28125 -3.113281 19.09375 -3.46875 C 18.914062 -3.820312 18.625 -4.0625 18.21875 -4.1875 L 11.015625 -6.5 C 9.734375 -6.90625 8.679688 -7.5625 7.859375 -8.46875 C 7.035156 -9.375 6.492188 -10.425781 6.234375 -11.625 C 5.972656 -12.820312 6.050781 -14.0625 6.46875 -15.34375 L 7.09375 -17.34375 C 7.507812 -18.644531 8.171875 -19.703125 9.078125 -20.515625 C 9.984375 -21.328125 11.035156 -21.863281 12.234375 -22.125 C 13.429688 -22.382812 14.671875 -22.3125 15.953125 -21.90625 L 31.09375 -17.0625 C 31.5 -16.9375 31.789062 -16.695312 31.96875 -16.34375 C 32.144531 -15.988281 32.171875 -15.609375 32.046875 -15.203125 L 30.9375 -11.734375 C 30.8125 -11.347656 30.570312 -11.0625 30.21875 -10.875 C 29.863281 -10.695312 29.484375 -10.671875 29.078125 -10.796875 L 16.546875 -14.8125 C 16.160156 -14.9375 15.789062 -14.90625 15.4375 -14.71875 C 15.09375 -14.53125 14.851562 -14.234375 14.71875 -13.828125 C 14.59375 -13.441406 14.617188 -13.070312 14.796875 -12.71875 C 14.984375 -12.375 15.269531 -12.140625 15.65625 -12.015625 L 22.890625 -9.703125 C 24.191406 -9.273438 25.25 -8.609375 26.0625 -7.703125 C 26.875 -6.804688 27.410156 -5.765625 27.671875 -4.578125 C 27.941406 -3.390625 27.867188 -2.144531 27.453125 -0.84375 L 26.8125 1.15625 C 26.394531 2.4375 25.734375 3.492188 24.828125 4.328125 C 23.921875 5.171875 22.875 5.722656 21.6875 5.984375 C 20.5 6.242188 19.253906 6.160156 17.953125 5.734375 Z M 2.8125 0.90625 "/></g></g></g><g fill="#000000" fill-opacity="1"><g transform="translate(307.826411, 212.21732)"><g><path d="M 2.734375 1.109375 C 2.359375 0.953125 2.09375 0.6875 1.9375 0.3125 C 1.78125 -0.0625 1.78125 -0.4375 1.9375 -0.8125 L 3.296875 -4.203125 C 3.460938 -4.597656 3.726562 -4.875 4.09375 -5.03125 C 4.46875 -5.1875 4.84375 -5.1875 5.21875 -5.03125 L 17.390625 -0.109375 C 17.785156 0.046875 18.164062 0.0507812 18.53125 -0.09375 C 18.894531 -0.25 19.15625 -0.519531 19.3125 -0.90625 C 19.457031 -1.28125 19.453125 -1.648438 19.296875 -2.015625 C 19.148438 -2.390625 18.878906 -2.65625 18.484375 -2.8125 L 11.46875 -5.65625 C 10.226562 -6.15625 9.226562 -6.890625 8.46875 -7.859375 C 7.71875 -8.835938 7.253906 -9.925781 7.078125 -11.125 C 6.910156 -12.332031 7.082031 -13.566406 7.59375 -14.828125 L 8.375 -16.765625 C 8.882812 -18.023438 9.617188 -19.03125 10.578125 -19.78125 C 11.546875 -20.53125 12.632812 -20.988281 13.84375 -21.15625 C 15.0625 -21.320312 16.289062 -21.15625 17.53125 -20.65625 L 32.265625 -14.6875 C 32.660156 -14.53125 32.9375 -14.269531 33.09375 -13.90625 C 33.25 -13.550781 33.25 -13.175781 33.09375 -12.78125 L 31.71875 -9.40625 C 31.570312 -9.03125 31.3125 -8.757812 30.9375 -8.59375 C 30.570312 -8.4375 30.191406 -8.4375 29.796875 -8.59375 L 17.59375 -13.53125 C 17.21875 -13.6875 16.847656 -13.6875 16.484375 -13.53125 C 16.128906 -13.375 15.875 -13.097656 15.71875 -12.703125 C 15.5625 -12.316406 15.554688 -11.941406 15.703125 -11.578125 C 15.859375 -11.210938 16.125 -10.953125 16.5 -10.796875 L 23.546875 -7.953125 C 24.816406 -7.429688 25.820312 -6.691406 26.5625 -5.734375 C 27.3125 -4.785156 27.769531 -3.707031 27.9375 -2.5 C 28.113281 -1.300781 27.945312 -0.0664062 27.4375 1.203125 L 26.65625 3.140625 C 26.144531 4.398438 25.40625 5.410156 24.4375 6.171875 C 23.46875 6.941406 22.378906 7.410156 21.171875 7.578125 C 19.972656 7.753906 18.738281 7.582031 17.46875 7.0625 Z M 2.734375 1.109375 "/></g></g></g><g clip-path="url(#6826c18194)"><path fill="#ffffff" d="M 160.035156 212.578125 C 159.789062 212.648438 159.574219 212.714844 159.449219 212.753906 C 158.972656 212.902344 158.4375 212.730469 158.125 212.335938 C 157.808594 211.945312 157.722656 211.421875 157.695312 210.921875 C 157.671875 210.554688 157.683594 210.160156 157.902344 209.867188 C 158.1875 209.484375 158.714844 209.40625 159.1875 209.359375 L 159.402344 209.359375 C 159.414062 209.621094 159.441406 209.878906 159.476562 210.132812 C 159.59375 210.960938 159.785156 211.777344 160.035156 212.578125 Z M 160.035156 212.578125 " fill-opacity="1" fill-rule="nonzero"/></g><path fill="#ffffff" d="M 167.394531 211.96875 C 167.394531 212.046875 167.394531 212.125 167.390625 212.199219 C 167.386719 212.460938 167.34375 212.722656 167.265625 212.96875 C 167.09375 213.539062 166.730469 214.035156 166.214844 214.34375 C 165.476562 214.785156 164.59375 214.90625 163.742188 215.019531 C 162.894531 215.132812 161.957031 215.226562 161.25 214.734375 C 160.707031 214.359375 160.417969 213.710938 160.199219 213.082031 C 160.140625 212.914062 160.085938 212.746094 160.035156 212.578125 C 159.785156 211.78125 159.59375 210.960938 159.476562 210.132812 C 159.441406 209.882812 159.410156 209.621094 159.398438 209.359375 C 159.363281 208.566406 159.484375 207.765625 160.003906 207.1875 C 160.46875 206.667969 161.167969 206.441406 161.839844 206.265625 C 162.929688 205.980469 164.042969 205.75 165.164062 205.667969 C 165.332031 205.65625 165.492188 205.707031 165.644531 205.785156 C 165.964844 205.769531 166.285156 205.976562 166.519531 206.21875 C 166.945312 206.652344 167.257812 207.269531 167.347656 207.851562 C 167.378906 208.007812 167.386719 208.164062 167.378906 208.3125 C 167.378906 208.339844 167.378906 208.363281 167.375 208.390625 C 167.332031 208.390625 167.285156 208.398438 167.242188 208.402344 C 166.710938 208.457031 166.179688 208.550781 165.765625 208.667969 C 165.476562 209.5 165.46875 210.433594 165.746094 211.269531 C 165.835938 211.542969 165.976562 211.828125 166.230469 211.960938 C 166.433594 212.066406 166.679688 212.050781 166.910156 212.03125 C 166.992188 212.027344 167.074219 212.015625 167.15625 212.007812 C 167.234375 211.996094 167.3125 211.980469 167.394531 211.96875 Z M 167.394531 211.96875 " fill-opacity="1" fill-rule="nonzero"/><path fill="#ffffff" d="M 189.679688 208.320312 C 189.671875 208.6875 189.632812 209.082031 189.390625 209.355469 C 189.078125 209.714844 188.542969 209.75 188.070312 209.757812 L 187.859375 209.757812 C 187.867188 209.492188 187.859375 209.226562 187.84375 208.964844 C 187.789062 208.183594 187.679688 207.40625 187.511719 206.640625 C 187.683594 206.601562 187.871094 206.546875 188.0625 206.46875 C 188.527344 206.285156 189.078125 206.460938 189.359375 206.875 C 189.640625 207.289062 189.6875 207.820312 189.679688 208.320312 Z M 189.679688 208.320312 " fill-opacity="1" fill-rule="nonzero"/><g clip-path="url(#770c33a0d4)"><path fill="#ffffff" d="M 187.859375 209.757812 C 187.832031 210.550781 187.648438 211.332031 187.089844 211.859375 C 186.585938 212.34375 185.875 212.558594 185.183594 212.636719 C 182.726562 212.910156 181.738281 213.128906 181.230469 212.796875 C 180.957031 212.742188 180.703125 212.539062 180.515625 212.316406 C 180.0625 211.773438 179.75 211.195312 179.792969 210.019531 C 181.214844 210.054688 181.414062 209.363281 181.394531 208.351562 C 181.375 207.285156 180.820312 206.832031 179.933594 206.839844 C 179.882812 206.839844 179.832031 206.839844 179.78125 206.84375 C 179.734375 204.554688 180.472656 204.257812 181.394531 204.046875 C 182.234375 203.855469 183.105469 203.800781 183.964844 203.757812 C 184.820312 203.710938 185.761719 203.691406 186.429688 204.238281 C 186.941406 204.65625 187.175781 205.324219 187.347656 205.96875 C 187.40625 206.191406 187.460938 206.417969 187.511719 206.640625 C 187.679688 207.40625 187.789062 208.183594 187.84375 208.964844 C 187.859375 209.226562 187.867188 209.492188 187.859375 209.757812 Z M 187.859375 209.757812 " fill-opacity="1" fill-rule="nonzero"/></g><path fill="#ffffff" d="M 169.59375 211.578125 C 169.480469 211.625 169.375 211.660156 169.289062 211.664062 C 168.648438 211.695312 168.027344 211.867188 167.394531 211.96875 C 167.3125 211.980469 167.234375 211.996094 167.15625 212.003906 C 167.074219 212.015625 166.992188 212.023438 166.910156 212.03125 C 166.683594 212.050781 166.4375 212.066406 166.230469 211.960938 C 165.976562 211.828125 165.835938 211.542969 165.746094 211.269531 C 165.46875 210.429688 165.476562 209.5 165.765625 208.667969 C 166.179688 208.550781 166.710938 208.457031 167.242188 208.398438 C 167.285156 208.394531 167.332031 208.390625 167.375 208.386719 C 167.886719 208.339844 168.394531 208.332031 168.808594 208.367188 C 168.898438 208.375 168.984375 208.382812 169.058594 208.394531 C 169.027344 209.210938 169.105469 210.039062 169.296875 210.832031 C 169.359375 211.089844 169.449219 211.359375 169.59375 211.578125 Z M 169.59375 211.578125 " fill-opacity="1" fill-rule="nonzero"/><path fill="#ffffff" d="M 179.792969 210.019531 C 179.722656 210.019531 179.644531 210.015625 179.566406 210.011719 L 179.355469 210.015625 C 179.425781 209.597656 179.535156 209.199219 179.730469 208.824219 C 179.84375 208.609375 179.980469 208.410156 180.050781 208.179688 C 180.121094 207.953125 180.117188 207.683594 179.96875 207.496094 C 179.835938 207.339844 179.621094 207.277344 179.417969 207.292969 C 179.214844 207.316406 179.027344 207.40625 178.855469 207.519531 C 178.289062 207.886719 177.894531 208.492188 177.730469 209.152344 C 177.660156 209.441406 177.476562 209.609375 177.269531 209.710938 C 177.277344 209.632812 177.285156 209.554688 177.289062 209.480469 C 177.332031 208.855469 177.296875 208.222656 177.179688 207.605469 C 177.15625 207.457031 177.121094 207.308594 177.074219 207.164062 C 177.167969 207.140625 177.273438 207.113281 177.390625 207.085938 C 178.171875 206.882812 178.980469 206.851562 179.785156 206.84375 C 179.835938 206.839844 179.886719 206.839844 179.9375 206.839844 C 180.824219 206.832031 181.378906 207.285156 181.398438 208.351562 C 181.414062 209.367188 181.21875 210.058594 179.792969 210.019531 Z M 179.792969 210.019531 " fill-opacity="1" fill-rule="nonzero"/><path fill="#ffffff" d="M 185.730469 241.046875 C 177.90625 242.519531 171.679688 240.601562 168.867188 238.691406 C 165.632812 236.492188 165.84375 233.46875 168.148438 225.96875 C 169.875 220.363281 168.378906 216.324219 167.492188 213.90625 C 167.398438 213.65625 167.324219 213.335938 167.265625 212.96875 C 167.34375 212.722656 167.386719 212.460938 167.390625 212.199219 C 167.394531 212.121094 167.394531 212.046875 167.394531 211.96875 C 168.023438 211.863281 168.648438 211.695312 169.289062 211.664062 C 169.371094 211.660156 169.480469 211.625 169.59375 211.574219 C 169.449219 211.359375 169.355469 211.089844 169.296875 210.832031 C 169.105469 210.039062 169.023438 209.210938 169.058594 208.394531 C 168.980469 208.382812 168.898438 208.375 168.808594 208.367188 C 168.390625 208.332031 167.886719 208.339844 167.375 208.386719 C 167.375 208.363281 167.375 208.335938 167.378906 208.3125 C 167.386719 208.164062 167.375 208.007812 167.347656 207.847656 C 167.371094 207.765625 167.390625 207.6875 167.414062 207.617188 C 167.675781 206.839844 168.460938 206.335938 169.265625 206.214844 C 169.65625 206.15625 170.097656 206.183594 170.382812 206.464844 C 170.519531 206.601562 170.605469 206.78125 170.667969 206.972656 L 170.847656 206.585938 C 171.042969 206.179688 171.585938 206.027344 172.003906 206.183594 C 172.34375 206.308594 172.605469 206.597656 172.765625 206.929688 L 173.015625 206.589844 C 173.203125 206.207031 173.703125 206.058594 174.105469 206.191406 C 174.4375 206.300781 174.695312 206.566406 174.859375 206.882812 L 175.074219 206.539062 C 175.511719 206.089844 176.328125 206.101562 176.753906 206.566406 C 176.90625 206.738281 177.003906 206.945312 177.070312 207.164062 C 177.117188 207.308594 177.152344 207.457031 177.175781 207.605469 C 177.289062 208.222656 177.324219 208.851562 177.285156 209.480469 C 177.28125 209.558594 177.273438 209.632812 177.265625 209.710938 C 177.472656 209.609375 177.65625 209.441406 177.726562 209.152344 C 177.890625 208.492188 178.285156 207.886719 178.851562 207.519531 C 179.023438 207.40625 179.210938 207.316406 179.410156 207.292969 C 179.617188 207.277344 179.832031 207.339844 179.960938 207.496094 C 180.113281 207.683594 180.117188 207.953125 180.046875 208.179688 C 179.972656 208.410156 179.835938 208.609375 179.726562 208.824219 C 179.53125 209.199219 179.421875 209.597656 179.351562 210.015625 C 179.179688 210.988281 179.230469 212.039062 178.917969 212.984375 C 178.65625 213.773438 178.15625 214.453125 177.632812 215.09375 C 177.109375 215.730469 176.550781 216.34375 176.132812 217.058594 C 175.714844 217.773438 175.441406 218.609375 175.566406 219.429688 C 175.890625 221.558594 176.878906 226.742188 176.199219 230.011719 C 176.199219 230.011719 176.15625 230.289062 176.0625 230.699219 C 178.652344 229.816406 181.394531 230.027344 183.714844 230.824219 C 183.878906 230.636719 184.054688 230.46875 184.234375 230.335938 C 185.667969 229.308594 187.496094 228.875 189.222656 229.203125 C 194.089844 230.128906 197.277344 238.882812 185.730469 241.046875 Z M 185.730469 241.046875 " fill-opacity="1" fill-rule="nonzero"/><g clip-path="url(#2c20c8b677)"><path fill="#000000" d="M 159.1875 209.222656 C 158.8125 209.257812 158.417969 209.300781 158.09375 209.507812 C 157.738281 209.730469 157.585938 210.101562 157.554688 210.511719 C 157.527344 210.925781 157.574219 211.378906 157.691406 211.777344 C 157.804688 212.15625 158.015625 212.511719 158.355469 212.722656 C 158.707031 212.9375 159.164062 212.992188 159.515625 212.757812 C 159.664062 212.660156 159.527344 212.421875 159.378906 212.519531 C 159.125 212.683594 158.808594 212.65625 158.550781 212.511719 C 158.253906 212.351562 158.070312 212.058594 157.96875 211.742188 C 157.863281 211.40625 157.824219 211.046875 157.824219 210.699219 C 157.824219 210.363281 157.886719 210.003906 158.167969 209.789062 C 158.457031 209.574219 158.84375 209.53125 159.1875 209.5 C 159.359375 209.480469 159.363281 209.203125 159.1875 209.222656 Z M 159.1875 209.222656 " fill-opacity="1" fill-rule="nonzero"/></g><path fill="#000000" d="M 165.164062 205.53125 C 164.339844 205.613281 163.523438 205.742188 162.714844 205.914062 C 162 206.066406 161.246094 206.222656 160.597656 206.566406 C 160 206.882812 159.578125 207.398438 159.390625 208.050781 C 159.207031 208.691406 159.238281 209.375 159.324219 210.027344 C 159.429688 210.832031 159.605469 211.628906 159.835938 212.40625 C 160.039062 213.078125 160.253906 213.800781 160.679688 214.367188 C 161.105469 214.929688 161.71875 215.195312 162.40625 215.242188 C 162.753906 215.265625 163.105469 215.234375 163.449219 215.195312 C 163.808594 215.152344 164.171875 215.105469 164.53125 215.042969 C 165.238281 214.925781 165.964844 214.730469 166.546875 214.285156 C 167.0625 213.890625 167.464844 213.3125 167.539062 212.648438 C 167.558594 212.484375 167.550781 212.324219 167.527344 212.164062 C 167.5 211.988281 167.234375 212.0625 167.261719 212.238281 C 167.351562 212.855469 167.039062 213.453125 166.609375 213.871094 C 166.125 214.339844 165.476562 214.566406 164.832031 214.707031 C 164.484375 214.78125 164.136719 214.828125 163.785156 214.875 C 163.464844 214.917969 163.140625 214.960938 162.816406 214.96875 C 162.1875 214.988281 161.542969 214.878906 161.082031 214.410156 C 160.625 213.949219 160.410156 213.292969 160.214844 212.691406 C 159.976562 211.957031 159.792969 211.207031 159.664062 210.445312 C 159.464844 209.273438 159.34375 207.757812 160.441406 206.988281 C 160.984375 206.605469 161.65625 206.449219 162.289062 206.296875 C 163.050781 206.113281 163.820312 205.972656 164.59375 205.875 C 164.785156 205.851562 164.976562 205.828125 165.167969 205.808594 C 165.339844 205.789062 165.339844 205.511719 165.164062 205.53125 Z M 165.164062 205.53125 " fill-opacity="1" fill-rule="nonzero"/><path fill="#000000" d="M 167.515625 208.3125 C 167.507812 207.445312 167.132812 206.515625 166.449219 205.964844 C 166.117188 205.699219 165.667969 205.527344 165.265625 205.753906 C 164.914062 205.953125 164.746094 206.363281 164.609375 206.722656 C 164.023438 208.273438 164.03125 210.039062 164.5625 211.601562 C 164.863281 212.488281 165.328125 213.308594 165.945312 214.007812 C 166.066406 214.140625 166.257812 213.945312 166.140625 213.808594 C 165.136719 212.671875 164.554688 211.179688 164.457031 209.664062 C 164.410156 208.90625 164.480469 208.144531 164.675781 207.414062 C 164.832031 206.835938 165.152344 205.625 165.976562 205.992188 C 166.390625 206.175781 166.699219 206.589844 166.90625 206.980469 C 167.121094 207.390625 167.238281 207.847656 167.242188 208.3125 C 167.246094 208.492188 167.519531 208.492188 167.515625 208.3125 Z M 167.515625 208.3125 " fill-opacity="1" fill-rule="nonzero"/><path fill="#000000" d="M 188.070312 209.898438 C 188.453125 209.890625 188.859375 209.871094 189.203125 209.683594 C 189.566406 209.480469 189.738281 209.109375 189.789062 208.710938 C 189.890625 207.945312 189.820312 206.941406 189.136719 206.457031 C 188.804688 206.222656 188.359375 206.148438 187.996094 206.351562 C 187.839844 206.4375 187.980469 206.675781 188.132812 206.589844 C 188.394531 206.445312 188.703125 206.507812 188.945312 206.660156 C 189.230469 206.84375 189.390625 207.148438 189.46875 207.472656 C 189.550781 207.8125 189.558594 208.175781 189.535156 208.523438 C 189.511719 208.859375 189.421875 209.21875 189.121094 209.410156 C 188.8125 209.605469 188.425781 209.613281 188.070312 209.621094 C 187.894531 209.625 187.894531 209.902344 188.070312 209.898438 Z M 188.070312 209.898438 " fill-opacity="1" fill-rule="nonzero"/><g clip-path="url(#4eacc56d86)"><path fill="#000000" d="M 181.828125 213.109375 C 182.753906 213.085938 183.679688 213.007812 184.601562 212.871094 C 185.363281 212.757812 186.199219 212.652344 186.859375 212.214844 C 188.191406 211.34375 188.070312 209.507812 187.902344 208.121094 C 187.792969 207.242188 187.632812 206.351562 187.355469 205.511719 C 187.125 204.800781 186.738281 204.144531 186.035156 203.839844 C 185.335938 203.539062 184.550781 203.585938 183.8125 203.628906 C 182.957031 203.675781 182.09375 203.734375 181.257812 203.9375 C 180.875 204.03125 180.484375 204.175781 180.210938 204.476562 C 179.855469 204.863281 179.746094 205.410156 179.703125 205.921875 C 179.683594 206.113281 179.679688 206.308594 179.679688 206.503906 C 179.679688 206.683594 179.953125 206.683594 179.953125 206.503906 C 179.957031 205.957031 179.980469 205.335938 180.269531 204.855469 C 180.457031 204.546875 180.757812 204.375 181.09375 204.273438 C 181.777344 204.058594 182.511719 203.992188 183.222656 203.941406 C 183.949219 203.890625 184.722656 203.800781 185.445312 203.945312 C 185.773438 204.011719 186.101562 204.140625 186.359375 204.359375 C 186.632812 204.589844 186.820312 204.898438 186.957031 205.222656 C 187.105469 205.566406 187.199219 205.929688 187.289062 206.289062 C 187.390625 206.707031 187.476562 207.132812 187.546875 207.558594 C 187.671875 208.332031 187.765625 209.128906 187.714844 209.914062 C 187.675781 210.558594 187.507812 211.238281 187.042969 211.714844 C 186.535156 212.230469 185.789062 212.390625 185.105469 212.511719 C 184.238281 212.664062 183.359375 212.761719 182.480469 212.808594 C 182.261719 212.820312 182.042969 212.828125 181.828125 212.832031 C 181.652344 212.832031 181.648438 213.113281 181.828125 213.109375 Z M 181.828125 213.109375 " fill-opacity="1" fill-rule="nonzero"/></g><path fill="#000000" d="M 179.6875 210.15625 C 179.628906 211.027344 179.941406 211.988281 180.585938 212.585938 C 180.886719 212.867188 181.308594 213.0625 181.710938 212.882812 C 182.078125 212.726562 182.28125 212.339844 182.445312 211.996094 C 183.15625 210.488281 183.292969 208.738281 182.890625 207.125 C 182.664062 206.222656 182.265625 205.359375 181.703125 204.613281 C 181.597656 204.472656 181.359375 204.613281 181.46875 204.753906 C 182.386719 205.980469 182.859375 207.511719 182.839844 209.042969 C 182.828125 209.808594 182.699219 210.566406 182.445312 211.285156 C 182.242188 211.847656 181.824219 213.015625 181.03125 212.574219 C 180.644531 212.359375 180.371094 211.933594 180.199219 211.535156 C 180.007812 211.105469 179.929688 210.628906 179.960938 210.15625 C 179.972656 209.980469 179.695312 209.980469 179.6875 210.15625 Z M 179.6875 210.15625 " fill-opacity="1" fill-rule="nonzero"/><path fill="#000000" d="M 165.632812 208.628906 C 165.339844 209.488281 165.328125 210.445312 165.613281 211.304688 C 165.734375 211.671875 165.941406 212.039062 166.335938 212.148438 C 166.539062 212.203125 166.75 212.183594 166.957031 212.167969 C 167.207031 212.144531 167.457031 212.117188 167.707031 212.082031 C 168.25 212.011719 168.792969 211.914062 169.324219 211.796875 C 169.5 211.761719 169.425781 211.492188 169.253906 211.53125 C 168.816406 211.625 168.378906 211.707031 167.9375 211.773438 C 167.519531 211.835938 167.082031 211.90625 166.660156 211.90625 C 166.46875 211.90625 166.289062 211.871094 166.152344 211.730469 C 166.027344 211.609375 165.953125 211.445312 165.894531 211.28125 C 165.761719 210.898438 165.691406 210.496094 165.683594 210.089844 C 165.671875 209.617188 165.746094 209.152344 165.898438 208.707031 C 165.953125 208.535156 165.6875 208.460938 165.632812 208.628906 Z M 165.632812 208.628906 " fill-opacity="1" fill-rule="nonzero"/><path fill="#000000" d="M 166.210938 208.777344 C 167.058594 208.542969 167.933594 208.453125 168.808594 208.507812 C 168.984375 208.519531 168.984375 208.242188 168.808594 208.230469 C 167.910156 208.175781 167.007812 208.269531 166.140625 208.511719 C 165.96875 208.558594 166.042969 208.828125 166.210938 208.777344 Z M 166.210938 208.777344 " fill-opacity="1" fill-rule="nonzero"/><path fill="#000000" d="M 168.9375 208.125 C 168.898438 208.695312 168.910156 209.269531 168.980469 209.839844 C 169.042969 210.34375 169.117188 210.871094 169.316406 211.34375 C 169.480469 211.730469 169.773438 212.078125 170.214844 212.109375 C 170.644531 212.144531 171.0625 211.84375 171.261719 211.472656 C 171.511719 211.011719 171.492188 210.460938 171.4375 209.953125 C 171.375 209.371094 171.265625 208.800781 171.132812 208.234375 C 171.066406 207.941406 170.992188 207.652344 170.917969 207.359375 C 170.859375 207.128906 170.804688 206.898438 170.703125 206.683594 C 170.496094 206.246094 170.070312 206.054688 169.609375 206.050781 C 168.644531 206.039062 167.601562 206.628906 167.285156 207.578125 C 167.230469 207.75 167.496094 207.820312 167.550781 207.652344 C 167.796875 206.90625 168.5625 206.457031 169.304688 206.347656 C 169.679688 206.292969 170.140625 206.324219 170.378906 206.667969 C 170.496094 206.835938 170.550781 207.035156 170.601562 207.230469 C 170.664062 207.472656 170.726562 207.714844 170.785156 207.957031 C 170.910156 208.464844 171.023438 208.980469 171.105469 209.496094 C 171.175781 209.957031 171.253906 210.460938 171.160156 210.925781 C 171.082031 211.324219 170.84375 211.710938 170.429688 211.816406 C 170.050781 211.910156 169.765625 211.640625 169.609375 211.320312 C 169.511719 211.121094 169.453125 210.90625 169.40625 210.6875 C 169.339844 210.40625 169.289062 210.125 169.253906 209.835938 C 169.183594 209.269531 169.171875 208.695312 169.210938 208.125 C 169.226562 207.945312 168.949219 207.945312 168.9375 208.125 Z M 168.9375 208.125 " fill-opacity="1" fill-rule="nonzero"/><path fill="#000000" d="M 170.96875 206.65625 C 171.164062 206.277344 171.664062 206.171875 172.03125 206.34375 C 172.5 206.5625 172.734375 207.078125 172.832031 207.5625 C 172.890625 207.855469 172.902344 208.15625 172.914062 208.453125 C 172.929688 208.769531 172.941406 209.085938 172.957031 209.402344 C 172.96875 209.691406 172.988281 209.980469 172.988281 210.273438 C 172.988281 210.519531 172.972656 210.773438 172.878906 211.003906 C 172.683594 211.488281 172.097656 211.695312 171.648438 211.414062 C 171.5 211.320312 171.359375 211.558594 171.511719 211.65625 C 171.957031 211.933594 172.597656 211.847656 172.9375 211.4375 C 173.328125 210.960938 173.269531 210.296875 173.246094 209.722656 C 173.230469 209.34375 173.210938 208.964844 173.195312 208.585938 C 173.179688 208.246094 173.167969 207.90625 173.113281 207.574219 C 173.011719 207 172.734375 206.394531 172.199219 206.121094 C 171.703125 205.863281 171.003906 205.984375 170.734375 206.515625 C 170.652344 206.675781 170.890625 206.816406 170.96875 206.65625 Z M 170.96875 206.65625 " fill-opacity="1" fill-rule="nonzero"/><path fill="#000000" d="M 173.136719 206.664062 C 173.328125 206.296875 173.808594 206.199219 174.164062 206.363281 C 174.613281 206.574219 174.847656 207.058594 174.945312 207.523438 C 175.070312 208.097656 175.066406 208.710938 175.082031 209.296875 C 175.09375 209.589844 175.101562 209.882812 175.09375 210.175781 C 175.089844 210.425781 175.0625 210.691406 174.917969 210.90625 C 174.574219 211.410156 173.882812 211.34375 173.410156 211.085938 C 173.253906 211.003906 173.117188 211.242188 173.273438 211.328125 C 173.789062 211.609375 174.441406 211.679688 174.925781 211.296875 C 175.429688 210.894531 175.378906 210.203125 175.367188 209.617188 C 175.359375 209.25 175.34375 208.882812 175.324219 208.515625 C 175.308594 208.1875 175.289062 207.859375 175.226562 207.535156 C 175.125 206.980469 174.851562 206.40625 174.332031 206.140625 C 173.847656 205.890625 173.167969 206.007812 172.902344 206.523438 C 172.816406 206.679688 173.054688 206.820312 173.136719 206.664062 Z M 173.136719 206.664062 " fill-opacity="1" fill-rule="nonzero"/><path fill="#000000" d="M 175.175781 206.640625 C 175.457031 206.359375 175.886719 206.285156 176.253906 206.40625 C 176.714844 206.558594 176.910156 207.011719 177.011719 207.457031 C 177.136719 208.015625 177.179688 208.59375 177.164062 209.167969 C 177.152344 209.691406 177.113281 210.277344 176.785156 210.710938 C 176.636719 210.90625 176.425781 211.066406 176.179688 211.101562 C 175.949219 211.136719 175.6875 211.0625 175.542969 210.875 C 175.496094 210.8125 175.425781 210.78125 175.355469 210.824219 C 175.296875 210.855469 175.261719 210.953125 175.304688 211.011719 C 175.636719 211.449219 176.261719 211.492188 176.695312 211.179688 C 177.199219 210.816406 177.363281 210.199219 177.414062 209.605469 C 177.476562 208.921875 177.433594 208.222656 177.308594 207.550781 C 177.210938 207.015625 177.007812 206.445312 176.484375 206.203125 C 175.992188 205.972656 175.371094 206.050781 174.980469 206.441406 C 174.855469 206.570312 175.046875 206.765625 175.175781 206.640625 Z M 175.175781 206.640625 " fill-opacity="1" fill-rule="nonzero"/><path fill="#000000" d="M 177.425781 207.21875 C 178.1875 207.078125 178.960938 207 179.734375 206.984375 C 180.175781 206.972656 180.644531 207 180.957031 207.359375 C 181.261719 207.710938 181.273438 208.226562 181.257812 208.667969 C 181.242188 208.980469 181.195312 209.332031 180.964844 209.566406 C 180.617188 209.921875 180.019531 209.902344 179.566406 209.871094 C 179.390625 209.859375 179.390625 210.136719 179.566406 210.148438 C 180.058594 210.183594 180.636719 210.179688 181.046875 209.863281 C 181.367188 209.617188 181.480469 209.234375 181.519531 208.847656 C 181.566406 208.351562 181.550781 207.792969 181.292969 207.355469 C 181.035156 206.925781 180.574219 206.730469 180.09375 206.703125 C 179.65625 206.679688 179.207031 206.71875 178.769531 206.757812 C 178.296875 206.800781 177.824219 206.863281 177.355469 206.949219 C 177.179688 206.984375 177.253906 207.25 177.425781 207.21875 Z M 177.425781 207.21875 " fill-opacity="1" fill-rule="nonzero"/><path fill="#000000" d="M 172.242188 214.058594 C 172.894531 212.773438 174.160156 211.863281 175.574219 211.65625 C 175.746094 211.628906 175.671875 211.359375 175.5 211.386719 C 174.355469 211.554688 173.285156 212.179688 172.550781 213.078125 C 172.339844 213.339844 172.15625 213.617188 172.003906 213.917969 C 171.925781 214.074219 172.160156 214.214844 172.242188 214.058594 Z M 172.242188 214.058594 " fill-opacity="1" fill-rule="nonzero"/><path fill="#000000" d="M 177.863281 209.191406 C 177.960938 208.757812 178.167969 208.355469 178.464844 208.03125 C 178.734375 207.738281 179.1875 207.34375 179.617188 207.445312 C 179.828125 207.492188 179.953125 207.660156 179.957031 207.875 C 179.964844 208.113281 179.851562 208.324219 179.738281 208.527344 C 179.507812 208.941406 179.339844 209.367188 179.246094 209.835938 C 179.0625 210.769531 179.109375 211.742188 178.871094 212.671875 C 178.621094 213.636719 178.011719 214.433594 177.382812 215.183594 C 176.742188 215.953125 176.066406 216.71875 175.683594 217.660156 C 175.5 218.117188 175.390625 218.613281 175.402344 219.105469 C 175.414062 219.421875 175.480469 219.738281 175.53125 220.046875 C 175.765625 221.515625 175.996094 222.984375 176.140625 224.464844 C 176.304688 226.109375 176.40625 227.800781 176.164062 229.441406 C 176.136719 229.621094 176.105469 229.796875 176.070312 229.972656 C 176.035156 230.148438 176.296875 230.222656 176.335938 230.046875 C 176.675781 228.394531 176.605469 226.660156 176.464844 224.988281 C 176.328125 223.40625 176.09375 221.835938 175.839844 220.269531 C 175.796875 219.992188 175.753906 219.714844 175.710938 219.4375 C 175.636719 218.945312 175.699219 218.453125 175.855469 217.984375 C 176.195312 216.980469 176.914062 216.175781 177.578125 215.378906 C 178.222656 214.609375 178.851562 213.789062 179.121094 212.800781 C 179.378906 211.84375 179.320312 210.835938 179.519531 209.871094 C 179.566406 209.632812 179.632812 209.398438 179.71875 209.171875 C 179.808594 208.945312 179.941406 208.742188 180.050781 208.523438 C 180.25 208.136719 180.355469 207.59375 179.949219 207.296875 C 179.550781 207.003906 179.039062 207.210938 178.683594 207.46875 C 178.324219 207.730469 178.023438 208.078125 177.824219 208.476562 C 177.722656 208.679688 177.648438 208.894531 177.597656 209.117188 C 177.558594 209.289062 177.824219 209.363281 177.863281 209.191406 Z M 177.863281 209.191406 " fill-opacity="1" fill-rule="nonzero"/><path fill="#000000" d="M 167.359375 213.945312 C 167.746094 215.050781 168.125 216.160156 168.382812 217.304688 C 168.730469 218.839844 168.863281 220.414062 168.761719 221.984375 C 168.699219 222.9375 168.546875 223.886719 168.324219 224.816406 C 168.085938 225.804688 167.753906 226.773438 167.476562 227.75 C 167.042969 229.253906 166.636719 230.78125 166.421875 232.332031 C 166.273438 233.410156 166.207031 234.523438 166.449219 235.589844 C 166.648438 236.472656 167.085938 237.269531 167.710938 237.914062 C 168.402344 238.628906 169.269531 239.15625 170.152344 239.597656 C 171.308594 240.175781 172.535156 240.609375 173.785156 240.933594 C 175.34375 241.34375 176.949219 241.585938 178.554688 241.683594 C 180.457031 241.796875 182.367188 241.707031 184.253906 241.4375 C 184.761719 241.367188 185.265625 241.28125 185.769531 241.183594 C 185.941406 241.148438 185.867188 240.878906 185.695312 240.914062 C 183.761719 241.289062 181.796875 241.480469 179.828125 241.453125 C 178.164062 241.429688 176.5 241.257812 174.871094 240.910156 C 173.546875 240.625 172.234375 240.230469 170.992188 239.683594 C 170.0625 239.277344 169.132812 238.789062 168.347656 238.128906 C 167.675781 237.5625 167.136719 236.855469 166.851562 236.015625 C 166.527344 235.054688 166.519531 234.019531 166.613281 233.019531 C 166.75 231.574219 167.101562 230.15625 167.476562 228.761719 C 167.988281 226.875 168.664062 225.035156 168.925781 223.089844 C 169.140625 221.464844 169.109375 219.816406 168.839844 218.199219 C 168.628906 216.957031 168.273438 215.746094 167.863281 214.558594 C 167.785156 214.328125 167.703125 214.097656 167.625 213.871094 C 167.566406 213.703125 167.300781 213.773438 167.359375 213.945312 Z M 167.359375 213.945312 " fill-opacity="1" fill-rule="nonzero"/><path fill="#000000" d="M 173.636719 232.078125 C 175.457031 230.828125 177.625 230.226562 179.820312 230.269531 C 181.796875 230.304688 183.777344 230.824219 185.527344 231.757812 C 186.375 232.210938 187.179688 232.765625 187.863281 233.445312 C 187.988281 233.574219 188.183594 233.375 188.054688 233.25 C 186.75 231.949219 185.035156 231.066406 183.289062 230.539062 C 181.261719 229.929688 179.074219 229.796875 177.007812 230.285156 C 175.753906 230.582031 174.5625 231.109375 173.496094 231.835938 C 173.351562 231.9375 173.488281 232.175781 173.636719 232.078125 Z M 173.636719 232.078125 " fill-opacity="1" fill-rule="nonzero"/><path fill="#000000" d="M 184.308594 230.457031 C 185.382812 229.636719 186.714844 229.199219 188.058594 229.214844 C 188.441406 229.21875 188.816406 229.257812 189.191406 229.335938 C 189.363281 229.375 189.4375 229.105469 189.261719 229.070312 C 187.890625 228.78125 186.449219 228.972656 185.1875 229.585938 C 184.828125 229.761719 184.488281 229.972656 184.171875 230.21875 C 184.03125 230.324219 184.167969 230.5625 184.308594 230.457031 Z M 184.308594 230.457031 " fill-opacity="1" fill-rule="nonzero"/><g fill="#000000" fill-opacity="1"><g transform="translate(127.229336, 138.87162)"><g><path d="M 2.203125 -2.71875 L 0.46875 -0.578125 L -4.65625 -4.734375 L -1.828125 -8.21875 C -1.148438 -9.050781 -0.539062 -9.671875 0 -10.078125 C 0.539062 -10.492188 1.039062 -10.710938 1.5 -10.734375 C 1.957031 -10.753906 2.398438 -10.585938 2.828125 -10.234375 C 3.253906 -9.890625 3.503906 -9.488281 3.578125 -9.03125 C 3.660156 -8.582031 3.554688 -8.050781 3.265625 -7.4375 C 2.972656 -6.820312 2.488281 -6.097656 1.8125 -5.265625 L 0.71875 -3.921875 Z M -0.546875 -4.9375 L 0.453125 -6.15625 C 0.722656 -6.5 0.925781 -6.78125 1.0625 -7 C 1.195312 -7.226562 1.28125 -7.40625 1.3125 -7.53125 C 1.34375 -7.664062 1.332031 -7.773438 1.28125 -7.859375 C 1.238281 -7.941406 1.175781 -8.015625 1.09375 -8.078125 C 1.007812 -8.148438 0.925781 -8.195312 0.84375 -8.21875 C 0.757812 -8.25 0.648438 -8.238281 0.515625 -8.1875 C 0.378906 -8.132812 0.21875 -8.019531 0.03125 -7.84375 C -0.144531 -7.664062 -0.367188 -7.40625 -0.640625 -7.0625 L -1.640625 -5.84375 Z M -0.546875 -4.9375 "/></g></g></g><g fill="#000000" fill-opacity="1"><g transform="translate(134.28165, 130.298538)"><g><path d="M 7.21875 -6.53125 L 5.28125 -4.78125 C 5.082031 -4.820312 4.878906 -4.914062 4.671875 -5.0625 C 4.503906 -5.195312 4.328125 -5.300781 4.140625 -5.375 C 3.953125 -5.457031 3.734375 -5.476562 3.484375 -5.4375 C 3.242188 -5.394531 2.96875 -5.238281 2.65625 -4.96875 L 1.3125 -3.765625 L 2.59375 -2.34375 L 0.546875 -0.5 L -3.875 -5.390625 L -0.53125 -8.40625 C 0.257812 -9.125 0.953125 -9.644531 1.546875 -9.96875 C 2.148438 -10.289062 2.675781 -10.425781 3.125 -10.375 C 3.582031 -10.320312 4 -10.09375 4.375 -9.6875 C 4.6875 -9.332031 4.867188 -8.96875 4.921875 -8.59375 C 4.984375 -8.226562 4.90625 -7.820312 4.6875 -7.375 C 5.132812 -7.53125 5.488281 -7.554688 5.75 -7.453125 C 6.019531 -7.359375 6.269531 -7.207031 6.5 -7 C 6.695312 -6.820312 6.9375 -6.664062 7.21875 -6.53125 Z M 0.234375 -4.96875 L 1.40625 -6.03125 C 1.726562 -6.320312 1.96875 -6.566406 2.125 -6.765625 C 2.289062 -6.972656 2.394531 -7.140625 2.4375 -7.265625 C 2.476562 -7.390625 2.484375 -7.492188 2.453125 -7.578125 C 2.429688 -7.671875 2.390625 -7.753906 2.328125 -7.828125 C 2.265625 -7.890625 2.191406 -7.9375 2.109375 -7.96875 C 2.023438 -8.007812 1.914062 -8.015625 1.78125 -7.984375 C 1.644531 -7.960938 1.46875 -7.878906 1.25 -7.734375 C 1.039062 -7.585938 0.773438 -7.367188 0.453125 -7.078125 L -0.71875 -6.015625 Z M 0.234375 -4.96875 "/></g></g></g><g fill="#000000" fill-opacity="1"><g transform="translate(142.575115, 122.916128)"><g><path d="M 4.25 -2.609375 C 2.882812 -1.710938 1.695312 -1.335938 0.6875 -1.484375 C -0.195312 -1.609375 -0.925781 -2.097656 -1.5 -2.953125 C -2.0625 -3.804688 -2.222656 -4.671875 -1.984375 -5.546875 C -1.703125 -6.523438 -0.878906 -7.460938 0.484375 -8.359375 C 1.835938 -9.253906 3.019531 -9.628906 4.03125 -9.484375 C 4.914062 -9.359375 5.640625 -8.867188 6.203125 -8.015625 C 6.773438 -7.160156 6.941406 -6.296875 6.703125 -5.421875 C 6.421875 -4.441406 5.601562 -3.503906 4.25 -2.609375 Z M 3.28125 -4.09375 C 3.832031 -4.457031 4.132812 -4.890625 4.1875 -5.390625 C 4.226562 -5.773438 4.128906 -6.144531 3.890625 -6.5 C 3.660156 -6.851562 3.359375 -7.085938 2.984375 -7.203125 C 2.515625 -7.347656 2.003906 -7.238281 1.453125 -6.875 C 0.890625 -6.507812 0.582031 -6.078125 0.53125 -5.578125 C 0.476562 -5.191406 0.566406 -4.820312 0.796875 -4.46875 C 1.035156 -4.113281 1.347656 -3.878906 1.734375 -3.765625 C 2.203125 -3.617188 2.71875 -3.726562 3.28125 -4.09375 Z M 3.28125 -4.09375 "/></g></g></g><g fill="#000000" fill-opacity="1"><g transform="translate(151.979879, 117.046438)"><g/></g></g><g fill="#000000" fill-opacity="1"><g transform="translate(155.034433, 115.359129)"><g><path d="M 5.203125 -2.125 L 2.640625 -1.078125 L 0.765625 -5.65625 L -1.609375 -4.6875 L -2.234375 -6.21875 L 5.09375 -9.203125 L 5.71875 -7.671875 L 3.328125 -6.703125 Z M 5.203125 -2.125 "/></g></g></g><g fill="#000000" fill-opacity="1"><g transform="translate(163.842652, 111.779781)"><g><path d="M 9.453125 -2.34375 L 6.921875 -1.71875 C 6.753906 -1.851562 6.613281 -2.039062 6.5 -2.28125 C 6.414062 -2.457031 6.3125 -2.625 6.1875 -2.78125 C 6.0625 -2.945312 5.878906 -3.066406 5.640625 -3.140625 C 5.410156 -3.210938 5.09375 -3.207031 4.6875 -3.125 L 2.9375 -2.6875 L 3.390625 -0.84375 L 0.71875 -0.171875 L -0.875 -6.578125 L 3.484375 -7.671875 C 4.523438 -7.929688 5.382812 -8.054688 6.0625 -8.046875 C 6.75 -8.046875 7.28125 -7.914062 7.65625 -7.65625 C 8.039062 -7.394531 8.296875 -7 8.421875 -6.46875 C 8.535156 -6.007812 8.53125 -5.601562 8.40625 -5.25 C 8.28125 -4.90625 8.015625 -4.585938 7.609375 -4.296875 C 8.078125 -4.222656 8.40625 -4.078125 8.59375 -3.859375 C 8.78125 -3.648438 8.925781 -3.398438 9.03125 -3.109375 C 9.125 -2.859375 9.265625 -2.601562 9.453125 -2.34375 Z M 2.53125 -4.265625 L 4.0625 -4.640625 C 4.488281 -4.753906 4.820312 -4.859375 5.0625 -4.953125 C 5.3125 -5.054688 5.484375 -5.15625 5.578125 -5.25 C 5.671875 -5.351562 5.726562 -5.445312 5.75 -5.53125 C 5.769531 -5.625 5.765625 -5.71875 5.734375 -5.8125 C 5.710938 -5.894531 5.671875 -5.972656 5.609375 -6.046875 C 5.554688 -6.117188 5.460938 -6.171875 5.328125 -6.203125 C 5.203125 -6.242188 5.007812 -6.253906 4.75 -6.234375 C 4.488281 -6.210938 4.144531 -6.144531 3.71875 -6.03125 L 2.1875 -5.65625 Z M 2.53125 -4.265625 "/></g></g></g><g fill="#000000" fill-opacity="1"><g transform="translate(174.612377, 109.139524)"><g><path d="M 11.03125 -0.90625 L 8.234375 -0.671875 L 7.515625 -1.703125 L 3.375 -1.359375 L 2.859375 -0.234375 L 0.0625 0 L 3.71875 -6.921875 L 6.296875 -7.140625 Z M 6.484375 -3.234375 L 5.171875 -5.140625 L 4.1875 -3.046875 Z M 6.484375 -3.234375 "/></g></g></g><g fill="#000000" fill-opacity="1"><g transform="translate(186.795762, 108.414785)"><g><path d="M 3.5 0.140625 L 0.734375 0.03125 L 1 -6.5625 L 3.765625 -6.453125 Z M 3.5 0.140625 "/></g></g></g><g fill="#000000" fill-opacity="1"><g transform="translate(192.117661, 108.478789)"><g><path d="M 10.375 1.703125 L 7.125 1.171875 L 4.171875 -3.828125 L 3.453125 0.5625 L 0.71875 0.125 L 1.796875 -6.375 L 5.046875 -5.84375 L 7.984375 -0.859375 L 8.71875 -5.234375 L 11.453125 -4.796875 Z M 10.375 1.703125 "/></g></g></g><g fill="#000000" fill-opacity="1"><g transform="translate(204.218356, 110.756731)"><g><path d="M 3.359375 0.984375 L 0.703125 0.203125 L 2.5625 -6.125 L 5.21875 -5.34375 Z M 3.359375 0.984375 "/></g></g></g><g fill="#000000" fill-opacity="1"><g transform="translate(209.364439, 112.114295)"><g><path d="M 9.640625 4.1875 L 6.625 2.875 L 4.984375 -2.6875 L 3.21875 1.390625 L 0.671875 0.296875 L 3.296875 -5.75 L 6.3125 -4.453125 L 7.96875 1.09375 L 9.734375 -2.96875 L 12.265625 -1.859375 Z M 9.640625 4.1875 "/></g></g></g><g fill="#000000" fill-opacity="1"><g transform="translate(220.5332, 117.097688)"><g><path d="M 4.109375 2.8125 C 2.742188 1.9375 1.921875 1.007812 1.640625 0.03125 C 1.390625 -0.832031 1.539062 -1.695312 2.09375 -2.5625 C 2.644531 -3.425781 3.367188 -3.925781 4.265625 -4.0625 C 5.265625 -4.207031 6.445312 -3.84375 7.8125 -2.96875 C 8.59375 -2.457031 9.1875 -1.945312 9.59375 -1.4375 C 10.007812 -0.9375 10.265625 -0.441406 10.359375 0.046875 C 10.460938 0.546875 10.441406 1.03125 10.296875 1.5 L 7.8125 -0.109375 C 7.78125 -0.640625 7.460938 -1.097656 6.859375 -1.484375 C 6.304688 -1.835938 5.789062 -1.9375 5.3125 -1.78125 C 4.9375 -1.664062 4.632812 -1.429688 4.40625 -1.078125 C 4.175781 -0.722656 4.085938 -0.347656 4.140625 0.046875 C 4.203125 0.546875 4.507812 0.972656 5.0625 1.328125 C 5.519531 1.628906 5.890625 1.8125 6.171875 1.875 C 6.453125 1.9375 6.6875 1.941406 6.875 1.890625 L 5.96875 1.3125 L 6.59375 0.328125 L 9.75 2.359375 L 7.96875 5.125 L 7 4.5 L 7.140625 3.828125 C 6.242188 3.878906 5.234375 3.539062 4.109375 2.8125 Z M 4.109375 2.8125 "/></g></g></g><g fill="#000000" fill-opacity="1"><g transform="translate(142.753286, 260.88288)"><g><path d="M 3.40625 1.84375 L 0.71875 0.390625 L 4.1875 -6.03125 L 11.546875 -2.046875 L 10.6875 -0.453125 L 6.015625 -2.984375 L 5.46875 -1.96875 L 9.421875 0.171875 L 8.75 1.40625 L 4.796875 -0.734375 Z M 3.40625 1.84375 "/></g></g></g><g fill="#000000" fill-opacity="1"><g transform="translate(152.901028, 266.120645)"><g><path d="M 3.578125 1.46875 L 0.75 0.3125 L 3.53125 -6.4375 L 6.359375 -5.28125 Z M 3.578125 1.46875 "/></g></g></g><g fill="#000000" fill-opacity="1"><g transform="translate(158.913266, 268.623495)"><g><path d="M 5.96875 1.75 L 3.03125 0.890625 L 4.578125 -4.375 L 1.84375 -5.171875 L 2.359375 -6.90625 L 10.765625 -4.4375 L 10.25 -2.703125 L 7.515625 -3.515625 Z M 5.96875 1.75 "/></g></g></g><g fill="#000000" fill-opacity="1"><g transform="translate(169.683962, 271.545171)"><g/></g></g><g fill="#000000" fill-opacity="1"><g transform="translate(173.963159, 272.469913)"><g><path d="M 3.859375 0.390625 L 0.8125 0.078125 L 1.546875 -7.1875 L 9.875 -6.328125 L 9.703125 -4.515625 L 4.421875 -5.0625 L 4.296875 -3.9375 L 8.765625 -3.484375 L 8.625 -2.078125 L 4.15625 -2.53125 Z M 3.859375 0.390625 "/></g></g></g><g fill="#000000" fill-opacity="1"><g transform="translate(185.45397, 273.555996)"><g><path d="M 5.515625 -0.078125 C 3.710938 -0.00390625 2.367188 -0.316406 1.484375 -1.015625 C 0.710938 -1.640625 0.300781 -2.519531 0.25 -3.65625 C 0.195312 -4.789062 0.535156 -5.703125 1.265625 -6.390625 C 2.085938 -7.171875 3.398438 -7.597656 5.203125 -7.671875 C 7.003906 -7.742188 8.335938 -7.429688 9.203125 -6.734375 C 9.984375 -6.109375 10.398438 -5.226562 10.453125 -4.09375 C 10.503906 -2.957031 10.160156 -2.046875 9.421875 -1.359375 C 8.617188 -0.578125 7.316406 -0.148438 5.515625 -0.078125 Z M 5.4375 -2.03125 C 6.175781 -2.0625 6.707031 -2.296875 7.03125 -2.734375 C 7.300781 -3.097656 7.425781 -3.507812 7.40625 -3.96875 C 7.382812 -4.4375 7.226562 -4.828125 6.9375 -5.140625 C 6.570312 -5.554688 6.019531 -5.75 5.28125 -5.71875 C 4.539062 -5.6875 4.003906 -5.453125 3.671875 -5.015625 C 3.410156 -4.660156 3.289062 -4.25 3.3125 -3.78125 C 3.332031 -3.320312 3.484375 -2.929688 3.765625 -2.609375 C 4.140625 -2.191406 4.695312 -2 5.4375 -2.03125 Z M 5.4375 -2.03125 "/></g></g></g><g fill="#000000" fill-opacity="1"><g transform="translate(198.431562, 272.859118)"><g><path d="M 10.5625 -2.09375 L 7.71875 -1.53125 C 7.550781 -1.695312 7.414062 -1.910156 7.3125 -2.171875 C 7.226562 -2.378906 7.113281 -2.578125 6.96875 -2.765625 C 6.832031 -2.953125 6.640625 -3.09375 6.390625 -3.1875 C 6.140625 -3.28125 5.789062 -3.285156 5.34375 -3.203125 L 3.390625 -2.8125 L 3.796875 -0.75 L 0.796875 -0.15625 L -0.625 -7.3125 L 4.25 -8.28125 C 5.425781 -8.519531 6.390625 -8.625 7.140625 -8.59375 C 7.890625 -8.5625 8.460938 -8.382812 8.859375 -8.0625 C 9.265625 -7.75 9.53125 -7.289062 9.65625 -6.6875 C 9.75 -6.1875 9.71875 -5.742188 9.5625 -5.359375 C 9.40625 -4.972656 9.097656 -4.632812 8.640625 -4.34375 C 9.160156 -4.238281 9.515625 -4.0625 9.703125 -3.8125 C 9.898438 -3.570312 10.046875 -3.289062 10.140625 -2.96875 C 10.234375 -2.675781 10.375 -2.382812 10.5625 -2.09375 Z M 3.03125 -4.578125 L 4.75 -4.921875 C 5.21875 -5.015625 5.582031 -5.113281 5.84375 -5.21875 C 6.113281 -5.320312 6.3125 -5.421875 6.4375 -5.515625 C 6.5625 -5.617188 6.628906 -5.71875 6.640625 -5.8125 C 6.660156 -5.90625 6.664062 -6 6.65625 -6.09375 C 6.632812 -6.195312 6.59375 -6.289062 6.53125 -6.375 C 6.476562 -6.46875 6.375 -6.535156 6.21875 -6.578125 C 6.070312 -6.628906 5.859375 -6.644531 5.578125 -6.625 C 5.296875 -6.613281 4.921875 -6.5625 4.453125 -6.46875 L 2.734375 -6.125 Z M 3.03125 -4.578125 "/></g></g></g><g fill="#000000" fill-opacity="1"><g transform="translate(211.099796, 270.022232)"><g/></g></g><g fill="#000000" fill-opacity="1"><g transform="translate(215.304693, 268.808147)"><g><path d="M 8.625 -3.5625 L 0.75 -0.3125 L -2.03125 -7.0625 L 0.796875 -8.234375 L 2.890625 -3.140625 L 7.9375 -5.21875 Z M 8.625 -3.5625 "/></g></g></g><g fill="#000000" fill-opacity="1"><g transform="translate(225.707895, 264.278254)"><g><path d="M 3.40625 -1.84375 L 0.71875 -0.390625 L -2.75 -6.8125 L -0.0625 -8.265625 Z M 3.40625 -1.84375 "/></g></g></g><g fill="#000000" fill-opacity="1"><g transform="translate(231.45523, 261.206351)"><g><path d="M 3.1875 -2.1875 L 0.671875 -0.453125 L -3.453125 -6.46875 L 3.453125 -11.21875 L 4.46875 -9.71875 L 0.078125 -6.703125 L 0.734375 -5.765625 L 4.453125 -8.3125 L 5.25 -7.15625 L 1.53125 -4.609375 Z M 3.1875 -2.1875 "/></g></g></g><g fill="#000000" fill-opacity="1"><g transform="translate(240.883593, 254.585786)"><g><path d="M 7.078125 -6.46875 L 0.59375 -0.546875 L -4.328125 -5.9375 L 1.859375 -11.578125 L 3.078125 -10.234375 L -0.84375 -6.65625 L -0.0625 -5.8125 L 3.265625 -8.84375 L 4.203125 -7.8125 L 0.875 -4.78125 L 1.640625 -3.9375 L 5.859375 -7.796875 Z M 7.078125 -6.46875 "/></g></g></g><g fill="#000000" fill-opacity="1"><g transform="translate(249.397784, 246.451776)"><g><path d="M 1.0625 -1.15625 L 0.109375 -0.109375 L -0.921875 -1.0625 L 0.03125 -2.109375 Z M 1.0625 -1.15625 "/></g></g></g></svg>