<svg width="8210" height="1042" viewBox="0 0 8210 1042" fill="none" xmlns="http://www.w3.org/2000/svg">
<path d="M539.848 32.4268C628.034 32.4268 698.582 53.2407 751.494 94.6496C804.624 136.168 831.244 195.762 831.244 273.431C831.244 356.139 806.486 429.316 757.19 492.963C708.113 556.391 645.123 594.952 568.331 608.645L811.964 1008.71H496.029L315.934 633.184H313.305L253.711 1008.71H-0.000244141L154.242 32.4268H539.848ZM339.158 470.177H374.213C433.807 470.177 479.926 457.689 512.681 432.493C545.654 407.407 562.196 370.709 562.196 322.508C562.196 258.532 509.394 226.544 404.01 226.544H378.157L339.158 470.177Z" fill="white"/>
<path d="M1151.18 32.4258L996.941 1008.71H743.229L897.472 32.4258H1151.18Z" fill="white"/>
<path d="M1514.94 6.57178C1619.45 6.57178 1717.49 33.3013 1808.97 86.7603L1676.63 283.507C1631.06 240.345 1578.48 218.655 1518.89 218.655C1487.88 218.655 1459.51 227.638 1433.88 245.385C1408.46 263.241 1395.75 285.041 1395.75 310.675C1395.75 329.736 1404.74 346.387 1422.92 360.628C1441 374.979 1474.3 389.001 1522.83 402.694C1588.23 422.632 1635.55 441.912 1664.8 460.535C1694.27 478.939 1717.17 501.725 1733.6 528.893C1750.25 556.06 1758.57 590.02 1758.57 630.553C1758.57 689.27 1743.35 751.493 1713 817.221C1682.88 882.73 1633.47 934.875 1564.9 973.654C1496.21 1012.43 1414.82 1032.81 1320.82 1034.56C1199.88 1034.56 1090.99 997.536 994.373 923.263L1135.47 718.629C1202.95 786.11 1272.4 819.85 1344.05 819.85C1383.7 819.85 1417.23 809.553 1444.39 788.739C1471.56 768.034 1485.14 741.633 1485.14 709.427C1485.14 668.237 1443.63 636.468 1360.7 613.901C1260.79 586.186 1196.05 556.499 1166.58 524.949C1137.33 493.399 1122.76 451.333 1122.76 398.751C1122.76 288.327 1160.45 195.431 1235.82 120.063C1311.4 44.4751 1404.52 6.57178 1514.94 6.57178Z" fill="white"/>
<path d="M2195.9 32.4268L2312.46 554.31L2603.85 32.4268H2856.25L2850.11 1008.71H2595.96L2614.37 446.953H2611.74L2287.92 1008.71H2187.13L2052.17 446.953H2049.54L1878.65 1008.71H1626.25L1946.13 32.4268H2195.9Z" fill="white"/>
<path d="M3937.47 425.919C3937.47 520.021 3910.31 617.627 3855.97 718.63C3801.63 819.742 3724.73 898.725 3625.48 955.69C3526.12 1012.65 3419.53 1041.14 3305.6 1041.14C3168.23 1041.14 3056.82 1000.82 2971.27 920.196C2885.93 839.351 2843.32 732.871 2843.32 600.757C2843.32 492.086 2871.91 391.741 2929.2 299.721C2986.71 207.701 3064.82 134.853 3163.63 81.0649C3262.66 27.0582 3364.87 0 3470.36 0C3553.84 0 3632.16 18.1848 3705.23 54.3354C3778.19 90.5955 3835.16 140.987 3876.13 205.511C3916.99 269.815 3937.47 343.321 3937.47 425.919ZM3344.6 794.874C3403.32 794.874 3457.44 778.881 3507.17 746.674C3556.8 714.248 3596.23 672.401 3625.48 620.913C3654.95 569.536 3669.74 518.815 3669.74 468.862C3669.74 406.639 3646.19 354.057 3599.19 311.114C3552.09 267.952 3495.78 246.262 3430.05 246.262C3379.22 246.262 3328.61 260.175 3278.44 287.89C3228.48 315.386 3188.17 352.523 3157.5 399.19C3126.82 445.638 3111.49 497.344 3111.49 554.309C3111.49 624.2 3133.18 681.712 3176.78 726.955C3220.27 772.308 3276.25 794.874 3344.6 794.874Z" fill="white"/>
<path d="M4504.17 32.3867L4470.65 247.428H4163.59L4137.74 410.544H4416.21L4382.36 625.475H4103.89L4043.2 1008.67H3789.27L3943.62 32.3867H4504.17Z" stroke="#242424" stroke-width="6.23422"/>
<path d="M4503.95 32.4268L4470.21 247.139H4163.48L4137.62 410.584H4415.87L4382.57 625.296H4103.88L4042.97 1008.71H3789.26L3943.51 32.4268H4503.95Z" fill="white"/>
<path d="M4761.75 32.4268L4607.51 1008.71H4353.8L4508.04 32.4268H4761.75Z" fill="white"/>
<path d="M5388.42 32.4268L5354.68 247.139H5144.79L5024.72 1008.71H4770.57L4891.08 247.139H4681.62L4714.92 32.4268H5388.42Z" fill="white"/>
<path d="M5596.88 32.4268L5967.15 629.24H5969.78L6064.43 32.4268H6318.14L6163.9 1008.71H5910.19L5539.92 410.584H5537.29L5442.64 1008.71H5188.93L5343.17 32.4268H5596.88Z" fill="white"/>
<path d="M6901.84 32.4268L6868.54 247.139H6566.63L6540.77 410.584H6826.91L6793.17 625.296H6507.03L6479.87 793.561H6781.78L6748.04 1008.71H6192.41L6346.66 32.4268H6901.84Z" fill="white"/>
<path d="M7256.76 6.57275C7361.27 6.57275 7459.31 33.3023 7550.79 86.7613L7418.45 283.508C7372.88 240.346 7320.3 218.656 7260.7 218.656C7229.7 218.656 7201.33 227.639 7175.7 245.386C7150.28 263.242 7137.57 285.042 7137.57 310.676C7137.57 329.737 7146.56 346.388 7164.74 360.629C7182.82 374.98 7216.12 389.002 7264.65 402.695C7330.05 422.633 7377.37 441.913 7406.62 460.536C7436.09 478.94 7458.98 501.726 7475.42 528.894C7492.07 556.061 7500.39 590.021 7500.39 630.554C7500.39 689.271 7485.17 751.494 7454.82 817.222C7424.7 882.731 7375.29 934.876 7306.71 973.655C7238.03 1012.44 7156.63 1032.81 7062.64 1034.56C6941.7 1034.56 6832.81 997.537 6736.19 923.264L6877.29 718.629C6944.77 786.111 7014.22 819.851 7085.87 819.851C7125.52 819.851 7159.04 809.554 7186.21 788.74C7213.38 768.035 7226.96 741.634 7226.96 709.428C7226.96 668.238 7185.45 636.469 7102.52 613.902C7002.61 586.187 6937.87 556.5 6908.4 524.95C6879.15 493.4 6864.58 451.334 6864.58 398.752C6864.58 288.328 6902.27 195.432 6977.63 120.064C7053.22 44.4761 7146.34 6.57275 7256.76 6.57275Z" fill="white"/>
<path d="M7915.82 6.57275C8020.33 6.57275 8118.37 33.3023 8209.84 86.7613L8077.51 283.508C8031.94 240.346 7979.35 218.656 7919.76 218.656C7888.76 218.656 7860.39 227.639 7834.75 245.386C7809.34 263.242 7796.63 285.042 7796.63 310.676C7796.63 329.737 7805.61 346.388 7823.8 360.629C7841.87 374.98 7875.18 389.002 7923.7 402.695C7989.1 422.633 8036.43 441.913 8065.68 460.536C8095.15 478.94 8118.04 501.726 8134.47 528.894C8151.12 556.061 8159.45 590.021 8159.45 630.554C8159.45 689.271 8144.22 751.494 8113.88 817.222C8083.75 882.731 8034.35 934.876 7965.77 973.655C7897.08 1012.44 7815.69 1032.81 7721.7 1034.56C7600.76 1034.56 7491.87 997.537 7395.25 923.264L7536.35 718.629C7603.83 786.111 7673.28 819.851 7744.92 819.851C7784.58 819.851 7818.1 809.554 7845.27 788.74C7872.44 768.035 7886.02 741.634 7886.02 709.428C7886.02 668.238 7844.5 636.469 7761.57 613.902C7661.67 586.187 7596.93 556.5 7567.46 524.95C7538.21 493.4 7523.64 451.334 7523.64 398.752C7523.64 288.328 7561.32 195.432 7636.69 120.064C7712.28 44.4761 7805.39 6.57275 7915.82 6.57275Z" fill="white"/>
</svg>
